<svg width="30" height="30" viewBox="0 0 30 30" fill="none" xmlns="http://www.w3.org/2000/svg">
<path d="M19.7367 30H10.2633C7.54214 29.9974 4.93316 28.9152 3.00899 26.991C1.08481 25.0668 0.00264751 22.4579 0 19.7367L0 10.2633C0.00264751 7.54214 1.08481 4.93316 3.00899 3.00899C4.93316 1.08481 7.54214 0.00264751 10.2633 0L19.7367 0C22.4579 0.00264751 25.0668 1.08481 26.991 3.00899C28.9152 4.93316 29.9974 7.54214 30 10.2633V19.7367C29.9974 22.4579 28.9152 25.0668 26.991 26.991C25.0668 28.9152 22.4579 29.9974 19.7367 30ZM10.1167 1.16667C7.74406 1.17019 5.46964 2.11427 3.79196 3.79196C2.11427 5.46964 1.17019 7.74406 1.16667 10.1167V19.8833C1.17019 22.2559 2.11427 24.5304 3.79196 26.208C5.46964 27.8857 7.74406 28.8298 10.1167 28.8333H19.8833C22.2559 28.8298 24.5304 27.8857 26.208 26.208C27.8857 24.5304 28.8298 22.2559 28.8333 19.8833V10.1167C28.8298 7.74406 27.8857 5.46964 26.208 3.79196C24.5304 2.11427 22.2559 1.17019 19.8833 1.16667H10.1167Z" fill="white"/>
<path d="M21.8066 4.34971C21.6557 4.18735 21.4648 4.06742 21.2531 4.00191C21.0414 3.93639 20.8161 3.92759 20.5999 3.97638C20.3878 4.01677 20.1912 4.11554 20.0322 4.26159C19.8732 4.40763 19.7581 4.59515 19.6999 4.80304L17.4966 13.5264H9.35992C8.95095 13.5092 8.55178 13.6544 8.24952 13.9305C7.94727 14.2065 7.76647 14.5909 7.74658 14.9997V25.683C7.74872 25.7338 7.76086 25.7837 7.7823 25.8298C7.80374 25.8759 7.83406 25.9173 7.87152 25.9517C7.90898 25.9861 7.95285 26.0127 8.00062 26.0301C8.0484 26.0475 8.09913 26.0553 8.14992 26.053H9.35992C9.45632 26.0566 9.55068 26.0246 9.62505 25.9632C9.69941 25.9017 9.7486 25.8151 9.76325 25.7197L10.4299 17.5897H17.5932L20.2599 25.7997C20.2886 25.8786 20.3413 25.9465 20.4107 25.9938C20.4801 26.0411 20.5626 26.0653 20.6466 26.063H21.8566C21.9159 26.064 21.9746 26.0519 22.0287 26.0277C22.0829 26.0035 22.1311 25.9678 22.1699 25.923C22.2082 25.8822 22.2356 25.8325 22.2496 25.7783C22.2636 25.7241 22.2637 25.6673 22.2499 25.613L19.8499 15.7397L22.0666 5.26971C22.1014 5.10678 22.0959 4.93781 22.0506 4.77748C22.0053 4.61715 21.9215 4.47031 21.8066 4.34971ZM8.99992 25.333H8.55325V16.1064H9.72992L8.99992 25.333ZM10.4966 16.8597L10.5566 16.123H17.1166L17.3566 16.8597H10.4966ZM20.9399 25.333L18.2732 17.123L17.9399 16.123H19.0933L21.3333 25.333H20.9399ZM21.2733 5.13638L19.0999 15.3697H8.55325V14.9997C8.56276 14.7951 8.65303 14.6027 8.80426 14.4646C8.95548 14.3265 9.15532 14.254 9.35992 14.263H17.8199C17.9079 14.2652 17.9941 14.2382 18.0652 14.1864C18.1363 14.1346 18.1883 14.0608 18.2133 13.9764L20.4866 4.97638C20.5174 4.88103 20.5826 4.80057 20.6695 4.75066C20.7564 4.70075 20.8587 4.68496 20.9566 4.70638C21.0526 4.72044 21.1392 4.77164 21.1978 4.84895C21.2564 4.92626 21.2823 5.02349 21.2699 5.11971L21.2733 5.13638Z" fill="white"/>
</svg>
