<svg width="54" height="54" viewBox="0 0 54 54" fill="none" xmlns="http://www.w3.org/2000/svg">
<path d="M43.61 53.22C43.3977 53.2213 43.1873 53.1806 42.9908 53.1003C42.7943 53.02 42.6157 52.9016 42.4651 52.752C42.3145 52.6024 42.195 52.4244 42.1135 52.2284C42.032 52.0325 41.99 51.8223 41.99 51.61V48.39L41.21 48.9C36.8811 51.7195 31.8262 53.2205 26.66 53.2205C21.4938 53.2205 16.4389 51.7195 12.11 48.9L11.33 48.39V51.61C11.33 51.8223 11.288 52.0325 11.2065 52.2284C11.125 52.4244 11.0055 52.6024 10.8549 52.752C10.7043 52.9016 10.5257 53.02 10.3292 53.1003C10.1327 53.1806 9.92227 53.2213 9.71 53.22H1.61C1.183 53.22 0.773493 53.0504 0.47156 52.7484C0.169626 52.4465 0 52.037 0 51.61V26.61C-7.36405e-08 23.1155 0.688288 19.6553 2.02557 16.4268C3.36284 13.1983 5.32292 10.2649 7.79389 7.79389C10.2649 5.32292 13.1983 3.36284 16.4268 2.02556C19.6553 0.688286 23.1155 0 26.61 0C30.1045 0 33.5647 0.688286 36.7932 2.02556C40.0217 3.36284 42.9551 5.32292 45.4261 7.79389C47.8971 10.2649 49.8572 13.1983 51.1944 16.4268C52.5317 19.6553 53.22 23.1155 53.22 26.61V51.61C53.22 52.037 53.0504 52.4465 52.7484 52.7484C52.4465 53.0504 52.037 53.22 51.61 53.22H43.61ZM49.12 40.91C48.0688 42.5403 46.8487 44.0553 45.48 45.43L45.33 45.58L45.23 45.89V49.99H50.04V39.49L49.12 40.91ZM11.28 44.26L11.46 44.41C15.5172 47.8604 20.6314 49.8215 25.9553 49.9684C31.2793 50.1153 36.4938 48.4393 40.7352 45.2178C44.9765 41.9964 47.9903 37.4229 49.2774 32.2548C50.5644 27.0866 50.0476 21.6338 47.8124 16.7995C45.5772 11.9652 41.7578 8.03942 36.9867 5.67229C32.2156 3.30516 26.7791 2.63872 21.5775 3.78334C16.376 4.92796 11.7214 7.81497 8.3847 11.9662C5.04801 16.1175 3.22938 21.284 3.23 26.61V49.99H8.04V26.61C8.03216 22.2232 9.57592 17.975 12.3982 14.6166C15.2206 11.2583 19.1396 9.00618 23.4622 8.25867C27.7849 7.51116 32.2326 8.31639 36.0188 10.5319C39.805 12.7475 42.6858 16.2306 44.1515 20.3653C45.6173 24.5 45.5737 29.0198 44.0284 33.1254C42.483 37.231 39.5356 40.6579 35.7073 42.7999C31.8791 44.942 27.4166 45.6612 23.1092 44.8303C18.8018 43.9995 14.927 41.6722 12.17 38.26L11.28 37.16V44.26ZM26.61 11.28C23.578 11.28 20.6141 12.1791 18.0931 13.8636C15.5721 15.5481 13.6072 17.9423 12.4469 20.7435C11.2866 23.5447 10.9831 26.627 11.5746 29.6007C12.1661 32.5745 13.6261 35.306 15.7701 37.4499C17.914 39.5939 20.6455 41.0539 23.6193 41.6454C26.593 42.2369 29.6753 41.9334 32.4765 40.7731C35.2777 39.6128 37.6719 37.6479 39.3564 35.1269C41.0409 32.6059 41.94 29.642 41.94 26.61C41.9347 22.5459 40.3179 18.6497 37.4441 15.7759C34.5703 12.9021 30.6741 11.2853 26.61 11.28ZM26.61 37.12C24.5289 37.12 22.4946 36.5028 20.7644 35.3464C19.0341 34.19 17.6858 32.5464 16.8898 30.6235C16.0939 28.7007 15.8861 26.5849 16.2929 24.544C16.6996 22.503 17.7025 20.6286 19.1748 19.1577C20.647 17.6869 22.5224 16.6857 24.5638 16.2809C26.6051 15.8761 28.7207 16.0859 30.6428 16.8837C32.5649 17.6814 34.2072 19.0314 35.3619 20.7627C36.5167 22.494 37.132 24.5289 37.13 26.61C37.1273 29.3983 36.0178 32.0716 34.0452 34.0423C32.0726 36.013 29.3983 37.12 26.61 37.12ZM26.61 19.33C25.1702 19.33 23.7626 19.757 22.5654 20.5569C21.3683 21.3568 20.4352 22.4938 19.8842 23.8241C19.3332 25.1543 19.189 26.6181 19.4699 28.0303C19.7508 29.4424 20.4441 30.7396 21.4623 31.7577C22.4804 32.7759 23.7776 33.4692 25.1897 33.7501C26.6019 34.031 28.0657 33.8869 29.3959 33.3358C30.7262 32.7848 31.8632 31.8517 32.6631 30.6546C33.463 29.4574 33.89 28.0498 33.89 26.61C33.8874 24.68 33.1195 22.8299 31.7548 21.4652C30.3901 20.1005 28.54 19.3326 26.61 19.33Z" fill="#999999"/>
</svg>
