<svg width="30" height="30" viewBox="0 0 30 30" fill="none" xmlns="http://www.w3.org/2000/svg">
<path d="M19.7367 30H10.2633C7.54214 29.9974 4.93316 28.9152 3.00899 26.991C1.08481 25.0668 0.00264751 22.4579 0 19.7367L0 10.2633C0.00264751 7.54214 1.08481 4.93316 3.00899 3.00899C4.93316 1.08481 7.54214 0.00264751 10.2633 0L19.7367 0C22.4579 0.00264751 25.0668 1.08481 26.991 3.00899C28.9152 4.93316 29.9974 7.54214 30 10.2633V19.7367C29.9974 22.4579 28.9152 25.0668 26.991 26.991C25.0668 28.9152 22.4579 29.9974 19.7367 30ZM10.1167 1.16667C7.74406 1.17019 5.46964 2.11427 3.79196 3.79196C2.11427 5.46964 1.17019 7.74406 1.16667 10.1167V19.8833C1.17019 22.2559 2.11427 24.5304 3.79196 26.208C5.46964 27.8857 7.74406 28.8298 10.1167 28.8333H19.8833C22.2559 28.8298 24.5304 27.8857 26.208 26.208C27.8857 24.5304 28.8298 22.2559 28.8333 19.8833V10.1167C28.8298 7.74406 27.8857 5.46964 26.208 3.79196C24.5304 2.11427 22.2559 1.17019 19.8833 1.16667H10.1167Z" fill="white"/>
<path d="M5.04642 19.4266C4.42668 18.0331 4.10645 16.525 4.10645 14.9999C4.10645 13.4748 4.42668 11.9667 5.04642 10.5732C5.94845 10.7885 6.80434 11.1645 7.57309 11.6832C7.36839 12.1429 7.20659 12.6205 7.08975 13.1099C6.612 13.6226 6.34635 14.2974 6.34635 14.9982C6.34635 15.6991 6.612 16.3738 7.08975 16.8866C7.20506 17.3829 7.36688 17.8673 7.57309 18.3332C6.80314 18.8461 5.94732 19.2164 5.04642 19.4266Z" fill="white"/>
<path d="M22.7632 10.3665C21.9621 9.0218 20.8254 7.90824 19.4645 7.13491C18.1036 6.36158 16.5651 5.955 14.9999 5.955C13.4346 5.955 11.8961 6.36158 10.5353 7.13491C9.17435 7.90824 8.03766 9.0218 7.23652 10.3665C6.89712 10.191 6.54633 10.0384 6.18652 9.90985C7.08038 8.36361 8.36531 7.07975 9.91229 6.18717C11.4593 5.29459 13.2138 4.82471 14.9999 4.82471C16.7859 4.82471 18.5404 5.29459 20.0874 6.18717C21.6344 7.07975 22.9193 8.36361 23.8132 9.90985C23.4534 10.0384 23.1026 10.191 22.7632 10.3665Z" fill="white"/>
<path d="M14.9999 25.1766C13.2138 25.1758 11.4594 24.7054 9.91254 23.8126C8.36566 22.9198 7.08071 21.636 6.18652 20.09C6.54633 19.9614 6.89712 19.8088 7.23652 19.6333C8.03766 20.978 9.17435 22.0916 10.5353 22.8649C11.8961 23.6382 13.4346 24.0448 14.9999 24.0448C16.5651 24.0448 18.1036 23.6382 19.4645 22.8649C20.8254 22.0916 21.9621 20.978 22.7632 19.6333C23.1023 19.8094 23.4531 19.962 23.8132 20.09C22.919 21.636 21.634 22.9198 20.0872 23.8126C18.5403 24.7054 16.7859 25.1758 14.9999 25.1766Z" fill="white"/>
<path d="M24.9534 19.4265C24.0525 19.2163 23.1967 18.846 22.4268 18.3332C22.632 17.8726 22.7938 17.3938 22.9101 16.9032C23.3878 16.3904 23.6535 15.7157 23.6535 15.0148C23.6535 14.314 23.3878 13.6392 22.9101 13.1265C22.7933 12.6371 22.6315 12.1595 22.4268 11.6998C23.1955 11.1812 24.0514 10.8051 24.9534 10.5898C25.5732 11.9833 25.8934 13.4914 25.8934 15.0165C25.8934 16.5416 25.5732 18.0497 24.9534 19.4432V19.4265Z" fill="white"/>
</svg>
