<svg width="30" height="30" viewBox="0 0 30 30" fill="none" xmlns="http://www.w3.org/2000/svg">
<path d="M19.7367 30H10.2633C7.54214 29.9974 4.93316 28.9152 3.00899 26.991C1.08481 25.0668 0.00264751 22.4579 0 19.7367L0 10.2633C0.00264751 7.54214 1.08481 4.93316 3.00899 3.00899C4.93316 1.08481 7.54214 0.00264751 10.2633 0L19.7367 0C22.4579 0.00264751 25.0668 1.08481 26.991 3.00899C28.9152 4.93316 29.9974 7.54214 30 10.2633V19.7367C29.9974 22.4579 28.9152 25.0668 26.991 26.991C25.0668 28.9152 22.4579 29.9974 19.7367 30ZM10.1167 1.16667C7.74406 1.17019 5.46964 2.11427 3.79196 3.79196C2.11427 5.46964 1.17019 7.74406 1.16667 10.1167V19.8833C1.17019 22.2559 2.11427 24.5304 3.79196 26.208C5.46964 27.8857 7.74406 28.8298 10.1167 28.8333H19.8833C22.2559 28.8298 24.5304 27.8857 26.208 26.208C27.8857 24.5304 28.8298 22.2559 28.8333 19.8833V10.1167C28.8298 7.74406 27.8857 5.46964 26.208 3.79196C24.5304 2.11427 22.2559 1.17019 19.8833 1.16667H10.1167Z" fill="white"/>
<path d="M13.39 20.4168C13.6266 20.4168 13.8 20.2834 13.8 20.0834V19.4168L13.82 19.3901L14.3866 20.2534C14.4195 20.3069 14.4656 20.351 14.5205 20.3814C14.5754 20.4118 14.6372 20.4274 14.7 20.4268C14.8132 20.4266 14.9224 20.3847 15.0067 20.309C15.0909 20.2334 15.1443 20.1293 15.1566 20.0168C15.1574 19.9538 15.1388 19.8921 15.1033 19.8401L14.36 18.7068L14.95 17.9668C14.9926 17.91 15.0159 17.8411 15.0166 17.7701C15.0047 17.6586 14.953 17.5551 14.871 17.4785C14.7889 17.402 14.6821 17.3576 14.57 17.3534C14.5174 17.3533 14.4655 17.3656 14.4186 17.3894C14.3717 17.4131 14.331 17.4476 14.3 17.4901L13.8 18.1568V17.6668C13.8 17.4801 13.63 17.3501 13.39 17.3501C13.15 17.3501 12.98 17.4768 12.98 17.6668V20.0834C12.98 20.2868 13.15 20.4168 13.39 20.4168Z" fill="white"/>
<path d="M16.2666 20.44C16.4049 20.4542 16.5447 20.4377 16.6759 20.3918C16.8072 20.3458 16.9267 20.2715 17.026 20.1741C17.1253 20.0768 17.2019 19.9587 17.2504 19.8284C17.2989 19.698 17.3181 19.5586 17.3066 19.42V18.9767C17.3095 18.9321 17.3029 18.8875 17.2872 18.8457C17.2715 18.8039 17.247 18.766 17.2155 18.7344C17.1839 18.7029 17.146 18.6784 17.1042 18.6627C17.0624 18.647 17.0178 18.6404 16.9732 18.6434H16.3399C16.2661 18.6479 16.1959 18.677 16.1404 18.7259C16.0848 18.7747 16.0472 18.8407 16.0332 18.9134V18.3834C16.0332 18.1667 16.1132 18.1234 16.2566 18.1234C16.3999 18.1234 16.4632 18.1834 16.4732 18.3267C16.4832 18.47 16.5899 18.66 16.8832 18.66C16.9382 18.6688 16.9945 18.6647 17.0476 18.6479C17.1006 18.631 17.149 18.602 17.1889 18.5632C17.2287 18.5243 17.2589 18.4766 17.277 18.424C17.2952 18.3713 17.3007 18.3152 17.2932 18.26C17.2932 17.74 16.8599 17.38 16.2366 17.38C16.0993 17.3672 15.9609 17.3848 15.8311 17.4315C15.7014 17.4782 15.5835 17.5529 15.4859 17.6502C15.3882 17.7475 15.3132 17.8652 15.2661 17.9948C15.2189 18.1243 15.2009 18.2627 15.2132 18.4V19.4367C15.2034 19.5753 15.2243 19.7144 15.2745 19.844C15.3247 19.9737 15.4029 20.0906 15.5036 20.1865C15.6042 20.2823 15.7248 20.3548 15.8567 20.3986C15.9886 20.4424 16.1286 20.4566 16.2666 20.44ZM16.3532 19.37H16.4866V19.42C16.4866 19.6367 16.3966 19.68 16.2666 19.68C16.1366 19.68 16.0466 19.6367 16.0466 19.42V19.0867C16.0578 19.1618 16.0943 19.2308 16.1501 19.2823C16.2058 19.3338 16.2775 19.3648 16.3532 19.37Z" fill="white"/>
<path d="M15.0968 23.133C15.9631 23.133 16.8099 22.8762 17.5302 22.3949C18.2505 21.9136 18.8119 21.2295 19.1434 20.4292C19.4749 19.6289 19.5616 18.7482 19.3926 17.8986C19.2236 17.0489 18.8065 16.2685 18.1939 15.6559C17.5814 15.0434 16.8009 14.6262 15.9513 14.4572C15.1017 14.2882 14.221 14.3749 13.4206 14.7065C12.6203 15.038 11.9362 15.5994 11.455 16.3197C10.9737 17.0399 10.7168 17.8868 10.7168 18.753C10.7186 19.9142 11.1806 21.0272 12.0016 21.8482C12.8226 22.6693 13.9357 23.1313 15.0968 23.133ZM11.5601 18.753C11.5601 18.0536 11.7676 17.3698 12.1562 16.7882C12.5448 16.2066 13.0971 15.7533 13.7434 15.4856C14.3896 15.2179 15.1007 15.1479 15.7868 15.2843C16.4728 15.4208 17.103 15.7576 17.5976 16.2522C18.0922 16.7469 18.429 17.377 18.5655 18.0631C18.702 18.7491 18.6319 19.4602 18.3643 20.1065C18.0966 20.7527 17.6433 21.3051 17.0617 21.6937C16.4801 22.0823 15.7963 22.2897 15.0968 22.2897C14.1591 22.2888 13.26 21.9159 12.597 21.2529C11.9339 20.5898 11.561 19.6908 11.5601 18.753Z" fill="white"/>
<path d="M9.23693 24.4965C10.6703 25.4665 12.6936 25.9765 15.0969 25.9765C17.5003 25.9765 19.5269 25.4665 20.9569 24.4965C22.6603 23.3432 23.5236 21.6165 23.5236 19.3632C23.523 17.7534 23.0602 16.1777 22.1903 14.8232C22.1202 14.71 22.0727 14.5844 22.0503 14.4532V14.4132C22.0492 14.3977 22.0492 14.3821 22.0503 14.3665C22.0503 14.3665 22.0503 14.2499 22.0503 14.2365C22.0588 14.0911 22.101 13.9496 22.1736 13.8232L23.0669 12.2699L23.6103 11.2699C23.6358 11.226 23.6581 11.1804 23.6769 11.1332C23.7069 11.0665 23.7336 11.0032 23.7603 10.9332C23.8136 10.7932 23.8603 10.6565 23.9036 10.5099C23.9236 10.4432 23.9403 10.3799 23.9569 10.3165C23.9936 10.1732 24.0203 10.0299 24.0469 9.85988C24.0469 9.79321 24.0669 9.73988 24.0703 9.68988C24.0883 9.54164 24.0984 9.39254 24.1003 9.24321V9.20321C24.1003 9.15321 24.1003 9.10321 24.1003 9.05321C24.1003 8.90988 24.1003 8.75321 24.0736 8.58655C24.0736 8.58655 24.0736 8.45988 24.0536 8.41988C24.032 8.25463 23.9997 8.09095 23.9569 7.92988C23.9569 7.86321 23.9369 7.82988 23.9269 7.79655C23.8105 7.3711 23.6402 6.96224 23.4203 6.57988C22.9789 5.80723 22.3401 5.16578 21.5693 4.72122C20.7985 4.27666 19.9234 4.04497 19.0336 4.04988H11.1569C10.2671 4.04497 9.39201 4.27666 8.62121 4.72122C7.85041 5.16578 7.21162 5.80723 6.77027 6.57988C6.55033 6.96342 6.38007 7.37338 6.2636 7.79988C6.2636 7.83655 6.24693 7.87321 6.2436 7.87655C6.1936 8.08988 6.16027 8.25655 6.13693 8.41655C6.13693 8.45988 6.13693 8.50655 6.13693 8.54321V8.57321C6.11819 8.73255 6.10818 8.89279 6.10693 9.05321C6.10693 9.10321 6.10693 9.15655 6.10693 9.19655V9.23655C6.10874 9.3892 6.11875 9.54164 6.13693 9.69321C6.13693 9.74655 6.13693 9.79988 6.16027 9.85321C6.18693 10.0332 6.21693 10.1865 6.25027 10.3165C6.26693 10.3865 6.28693 10.4532 6.30693 10.5165C6.34604 10.6568 6.39278 10.7948 6.44693 10.9299L6.53027 11.1332L6.58693 11.2532L6.76693 11.6265L6.95027 11.9599L7.1236 12.2499L8.0336 13.8265C8.10384 13.9491 8.14596 14.0857 8.15693 14.2265C8.15693 14.2665 8.15693 14.2999 8.15693 14.3599C8.15693 14.3599 8.15693 14.4132 8.15693 14.4265V14.4865C8.13195 14.6045 8.08685 14.7172 8.0236 14.8199C7.15192 16.1736 6.68899 17.7498 6.69027 19.3599C6.66693 21.6166 7.5336 23.3332 9.23693 24.4965ZM7.43027 10.7399C7.40693 10.6865 7.38693 10.6332 7.36693 10.5799C7.3236 10.4699 7.28693 10.3599 7.2536 10.2465C7.23693 10.1932 7.22027 10.1399 7.20693 10.0865C7.18027 9.96988 7.15693 9.85655 7.14027 9.75321C7.14027 9.69988 7.1236 9.64988 7.11693 9.59655C7.11693 9.47655 7.09693 9.35655 7.0936 9.23321C7.09027 9.18549 7.09027 9.1376 7.0936 9.08988C7.09473 8.96179 7.10252 8.83384 7.11693 8.70655C7.11693 8.66655 7.11693 8.62321 7.11693 8.58321C7.13693 8.44321 7.16693 8.30321 7.20027 8.16321C7.20027 8.13655 7.20027 8.10988 7.21693 8.08321C7.31204 7.74067 7.44979 7.41143 7.62693 7.10321C7.98072 6.48291 8.49322 5.96794 9.11183 5.61119C9.73043 5.25443 10.4328 5.06876 11.1469 5.07321H19.0369C19.751 5.06876 20.4534 5.25443 21.072 5.61119C21.6906 5.96794 22.2031 6.48291 22.5569 7.10321C22.7341 7.41143 22.8718 7.74067 22.9669 8.08321C22.9669 8.10988 22.9669 8.13988 22.9669 8.16655C23.003 8.30364 23.0309 8.44278 23.0503 8.58321C23.0503 8.62321 23.0503 8.66655 23.0503 8.70988C23.0503 8.83321 23.0736 8.96321 23.0769 9.08988C23.0769 9.13655 23.0769 9.18655 23.0769 9.23655C23.0775 9.35694 23.0697 9.47723 23.0536 9.59655C23.0493 9.64923 23.0415 9.70157 23.0303 9.75321C23.0303 9.86988 22.9903 9.98321 22.9636 10.0865C22.9636 10.1432 22.9336 10.1965 22.9169 10.2499C22.8869 10.3632 22.8469 10.4732 22.8069 10.5832L22.7403 10.7432C22.7203 10.7865 22.6936 10.8299 22.6736 10.8765L21.0403 9.93321C21.1003 9.78189 21.1428 9.6242 21.1669 9.46321C21.1669 9.39655 21.1736 9.32988 21.1869 9.26322C21.1869 9.24322 21.1869 9.22321 21.1869 9.20321C21.1903 9.14215 21.1903 9.08095 21.1869 9.01988C21.1869 8.99655 21.1869 8.96988 21.1869 8.94655C21.1869 8.92321 21.1869 8.82655 21.1636 8.76988C21.1403 8.71321 21.1636 8.71655 21.1636 8.69321C21.1636 8.66988 21.1369 8.57655 21.1203 8.51655C21.1036 8.45655 21.1203 8.47321 21.0969 8.44988C21.0515 8.30834 20.9912 8.17202 20.9169 8.04321C20.7224 7.70755 20.4427 7.42912 20.1062 7.236C19.7697 7.04287 19.3882 6.94189 19.0003 6.94321H11.1869C10.799 6.94062 10.4173 7.04032 10.0802 7.23227C9.74316 7.42422 9.46263 7.70163 9.26693 8.03655C9.19325 8.16795 9.13294 8.30643 9.08693 8.44988C9.07931 8.46842 9.07263 8.48733 9.06693 8.50655C9.04693 8.56988 9.0336 8.62988 9.02027 8.68988C9.00693 8.74988 9.02027 8.73655 9.02027 8.75988C9.02027 8.78322 9.0036 8.87988 8.99693 8.94321C8.99027 9.00655 8.99693 8.98655 8.99693 9.00988C8.9936 9.07317 8.9936 9.13659 8.99693 9.19988C8.99693 9.19988 8.99693 9.23321 8.99693 9.24988C9.01196 9.47855 9.06257 9.70348 9.14693 9.91655L7.5136 10.8599C7.47693 10.8265 7.45027 10.7832 7.43027 10.7399ZM20.1203 9.73988L19.2936 11.1732C19.2121 11.3131 19.0953 11.4292 18.9549 11.5099C18.8146 11.5906 18.6555 11.6331 18.4936 11.6332C18.3794 11.6307 18.2666 11.6082 18.1603 11.5665C16.2014 10.8067 14.0292 10.8067 12.0703 11.5665C11.9563 11.6098 11.8355 11.6324 11.7136 11.6332C11.5518 11.6346 11.3927 11.5926 11.2526 11.5118C11.1125 11.4309 10.9966 11.314 10.9169 11.1732L10.0903 9.73988C9.97753 9.5509 9.91801 9.33494 9.91801 9.11488C9.91801 8.89483 9.97753 8.67887 10.0903 8.48988C10.205 8.2973 10.3681 8.13811 10.5634 8.02816C10.7587 7.91821 10.9795 7.86135 11.2036 7.86321H19.0003C19.225 7.86076 19.4464 7.91735 19.6423 8.02733C19.8383 8.1373 20.002 8.2968 20.1169 8.48988C20.2314 8.67997 20.2922 8.89754 20.2927 9.11942C20.2933 9.34131 20.2337 9.55919 20.1203 9.74988V9.73988ZM8.83693 15.3632C8.9715 15.1505 9.06427 14.914 9.11027 14.6665C9.11027 14.6099 9.1336 14.5499 9.14027 14.4932V14.4432C9.13861 14.4255 9.13861 14.4076 9.14027 14.3899C9.14526 14.3133 9.14526 14.2365 9.14027 14.1599C9.11989 13.8686 9.03324 13.5859 8.88693 13.3332L7.7936 11.4365L9.42693 10.4965L10.0936 11.6599L10.1503 11.7399C10.1831 11.7918 10.2187 11.8418 10.2569 11.8899C10.2869 11.9265 10.3169 11.9632 10.3503 11.9965L10.4603 12.1032C10.4923 12.1359 10.5268 12.166 10.5636 12.1932C10.6151 12.2351 10.6697 12.273 10.7269 12.3065C10.7803 12.3399 10.8336 12.3665 10.8869 12.3932C10.9403 12.4199 10.9836 12.4399 11.0303 12.4565L11.1636 12.5032L11.3069 12.5365L11.4436 12.5632C11.5263 12.5765 11.6099 12.5832 11.6936 12.5832C11.9298 12.5841 12.1639 12.54 12.3836 12.4532C14.1249 11.7783 16.0556 11.7783 17.7969 12.4532C18.0182 12.5383 18.2532 12.5824 18.4903 12.5832C18.8151 12.5855 19.1348 12.502 19.4169 12.341C19.699 12.18 19.9336 11.9474 20.0969 11.6665L20.7636 10.5032L22.3936 11.4432L21.3069 13.3332C21.1637 13.5798 21.0782 13.8556 21.0569 14.1399C21.0553 14.1476 21.0553 14.1555 21.0569 14.1632C21.0519 14.2387 21.0519 14.3144 21.0569 14.3899C21.0553 14.4087 21.0553 14.4277 21.0569 14.4465C21.0569 14.4465 21.0569 14.4799 21.0569 14.4965C21.0626 14.5537 21.0715 14.6104 21.0836 14.6665C21.1329 14.9089 21.2255 15.1404 21.3569 15.3499C22.1204 16.5442 22.5253 17.9324 22.5236 19.3499C22.5236 21.2499 21.8069 22.6832 20.3969 23.6565C19.1303 24.5099 17.3003 24.9632 15.0969 24.9632C12.8936 24.9632 11.0636 24.5232 9.80027 23.6665C8.38693 22.7132 7.66693 21.2632 7.66693 19.3632C7.66623 17.9454 8.07229 16.5572 8.83693 15.3632Z" fill="white"/>
</svg>
