<svg width="30" height="30" viewBox="0 0 30 30" fill="none" xmlns="http://www.w3.org/2000/svg">
<path d="M19.7367 30H10.2633C7.54214 29.9974 4.93316 28.9152 3.00899 26.991C1.08481 25.0668 0.00264751 22.4579 0 19.7367L0 10.2633C0.00264751 7.54214 1.08481 4.93316 3.00899 3.00899C4.93316 1.08481 7.54214 0.00264751 10.2633 0L19.7367 0C22.4579 0.00264751 25.0668 1.08481 26.991 3.00899C28.9152 4.93316 29.9974 7.54214 30 10.2633V19.7367C29.9974 22.4579 28.9152 25.0668 26.991 26.991C25.0668 28.9152 22.4579 29.9974 19.7367 30ZM10.1167 1.16667C7.74406 1.17019 5.46964 2.11427 3.79196 3.79196C2.11427 5.46964 1.17019 7.74406 1.16667 10.1167V19.8833C1.17019 22.2559 2.11427 24.5304 3.79196 26.208C5.46964 27.8857 7.74406 28.8298 10.1167 28.8333H19.8833C22.2559 28.8298 24.5304 27.8857 26.208 26.208C27.8857 24.5304 28.8298 22.2559 28.8333 19.8833V10.1167C28.8298 7.74406 27.8857 5.46964 26.208 3.79196C24.5304 2.11427 22.2559 1.17019 19.8833 1.16667H10.1167Z" fill="white"/>
<path d="M18.8598 24.0269C18.5352 24.0276 18.2156 23.9474 17.9298 23.7936L4.56648 16.5769C4.30832 16.4394 4.0899 16.2378 3.93227 15.9914C3.77464 15.7451 3.68311 15.4623 3.66648 15.1703L3.44982 11.5936C3.42308 11.1244 3.54889 10.6592 3.80844 10.2675C4.068 9.87575 4.44735 9.57853 4.88982 9.42025L10.1531 7.55359C10.4247 7.4562 10.7113 7.40767 10.9998 7.41025C11.3053 7.41039 11.6082 7.46689 11.8931 7.57692L25.3565 12.7703C25.7359 12.9172 26.0601 13.1789 26.2836 13.5189C26.5071 13.859 26.6188 14.2603 26.6031 14.6669L26.4131 18.9536C26.3982 19.2241 26.3176 19.4869 26.1782 19.7193C26.0388 19.9516 25.8448 20.1464 25.6131 20.2869L19.8665 23.7502C19.562 23.9316 19.2142 24.0272 18.8598 24.0269ZM10.9998 8.59025C10.8522 8.58967 10.7057 8.61447 10.5665 8.66359L5.29982 10.5303C5.09532 10.6022 4.91973 10.7386 4.79949 10.9189C4.67925 11.0993 4.62088 11.3138 4.63315 11.5303L4.84982 15.1069C4.85467 15.1986 4.88296 15.2875 4.93199 15.3651C4.98101 15.4427 5.04912 15.5065 5.12982 15.5503L18.4898 22.7569C18.6072 22.8235 18.7398 22.8586 18.8748 22.8586C19.0098 22.8586 19.1424 22.8235 19.2598 22.7569L24.9998 19.2969C25.067 19.2564 25.1232 19.1999 25.1633 19.1324C25.2034 19.065 25.2263 18.9887 25.2298 18.9103L25.4165 14.6236C25.4237 14.4621 25.38 14.3025 25.2914 14.1673C25.2029 14.0321 25.074 13.9282 24.9231 13.8703L11.4531 8.66692C11.3078 8.61442 11.1543 8.58846 10.9998 8.59025Z" fill="white"/>
<path d="M23.9401 14.3899L19 16.7865L6.47672 11.1765C6.41963 11.1483 6.35744 11.1319 6.29385 11.1282C6.23027 11.1246 6.1666 11.1338 6.10667 11.1553C6.04673 11.1769 5.99176 11.2103 5.94505 11.2536C5.89833 11.2969 5.86084 11.3492 5.8348 11.4073C5.80877 11.4654 5.79474 11.5282 5.79354 11.5919C5.79234 11.6556 5.80401 11.7188 5.82784 11.7779C5.85168 11.837 5.88718 11.8906 5.93224 11.9356C5.97729 11.9806 6.03097 12.0161 6.09005 12.0399L18.5201 17.6099L18.3867 21.6665C18.3849 21.7287 18.3954 21.7906 18.4176 21.8487C18.4398 21.9068 18.4731 21.96 18.5159 22.0052C18.5586 22.0504 18.6098 22.0867 18.6666 22.1121C18.7233 22.1375 18.7846 22.1515 18.8467 22.1532H18.8634C18.9878 22.1523 19.1068 22.1025 19.1948 22.0146C19.2827 21.9266 19.3325 21.8076 19.3334 21.6832L19.4634 17.6099L24.3501 15.2432C24.4061 15.2161 24.4562 15.1782 24.4976 15.1316C24.539 15.0851 24.5708 15.0309 24.5912 14.9721C24.6116 14.9133 24.6203 14.851 24.6167 14.7889C24.613 14.7267 24.5972 14.6659 24.57 14.6099C24.5429 14.5538 24.505 14.5037 24.4585 14.4623C24.412 14.4209 24.3578 14.3891 24.2989 14.3687C24.2401 14.3483 24.1779 14.3396 24.1157 14.3433C24.0536 14.3469 23.9927 14.3627 23.9367 14.3899H23.9401Z" fill="white"/>
</svg>
