<svg width="67" height="61" viewBox="0 0 67 61" fill="none" xmlns="http://www.w3.org/2000/svg">
<path d="M66.9111 30.3006C66.909 29.2944 66.5914 28.3142 66.003 27.498C65.4146 26.6818 64.585 26.0707 63.6311 25.7506L63.3411 25.6606V25.3606C63.0074 23.3105 62.4646 21.3 61.7211 19.3606L61.6011 19.0506L61.8411 18.8206C62.2463 18.4138 62.5657 17.9299 62.7805 17.3974C62.9952 16.8649 63.1008 16.2947 63.0911 15.7206C63.0911 14.5669 62.6328 13.4605 61.817 12.6447C61.0012 11.8289 59.8948 11.3706 58.7411 11.3706H57.0911L56.9411 11.1906C54.103 7.6949 50.5207 4.87639 46.4553 2.94048C42.3899 1.00456 37.9439 0 33.4411 0C28.9383 0 24.4923 1.00456 20.4269 2.94048C16.3615 4.87639 12.7792 7.6949 9.9411 11.1906L9.78113 11.3706H8.05115C7.18389 11.3727 6.337 11.634 5.61932 12.1209C4.90164 12.6078 4.3459 13.2981 4.02344 14.1032C3.70097 14.9083 3.62651 15.7914 3.80963 16.6391C3.99275 17.4868 4.42512 18.2604 5.05115 18.8606L5.29114 19.0906L5.17114 19.4006C4.42765 21.34 3.88483 23.3505 3.55115 25.4006V25.7006L3.27112 25.7906C2.31803 26.1109 1.48956 26.7223 0.902649 27.5387C0.315734 28.3551 0 29.3352 0 30.3406C0 31.3461 0.315734 32.3261 0.902649 33.1425C1.48956 33.9589 2.31803 34.5704 3.27112 34.8906L3.55115 34.9806V35.2806C3.88197 37.3313 4.42488 39.3421 5.17114 41.2806L5.29114 41.5906L5.05115 41.8206C4.42512 42.4208 3.99275 43.1944 3.80963 44.0421C3.62651 44.8899 3.70097 45.773 4.02344 46.578C4.3459 47.3831 4.90164 48.0734 5.61932 48.5603C6.337 49.0473 7.18389 49.3085 8.05115 49.3106H9.79114L9.9411 49.5006C12.7803 52.9947 16.3629 55.8117 20.4282 57.7466C24.4934 59.6814 28.9389 60.6854 33.4411 60.6854C37.9433 60.6854 42.3889 59.6814 46.4541 57.7466C50.5193 55.8117 54.1019 52.9947 56.9411 49.5006L57.0911 49.3106H58.8211C59.6884 49.3085 60.5353 49.0473 61.2529 48.5603C61.9706 48.0734 62.5264 47.3831 62.8488 46.578C63.1713 45.773 63.2457 44.8899 63.0626 44.0421C62.8795 43.1944 62.4471 42.4208 61.8211 41.8206L61.5811 41.5906L61.7011 41.2806C62.4474 39.3421 62.9903 37.3313 63.3211 35.2806V34.9806L63.6111 34.8906C64.5761 34.5732 65.4155 33.9578 66.0085 33.133C66.6015 32.3081 66.9176 31.3165 66.9111 30.3006V30.3006ZM15.5211 9.88062C20.4709 5.54176 26.8289 3.14962 33.4111 3.14962C39.9934 3.14962 46.3514 5.54176 51.3011 9.88062L52.3011 10.7606H14.5211L15.5211 9.88062ZM8.03113 13.8806H58.7811C59.2797 13.8806 59.7579 14.0787 60.1105 14.4313C60.463 14.7838 60.6611 15.262 60.6611 15.7606C60.6611 16.2592 60.463 16.7374 60.1105 17.09C59.7579 17.4425 59.2797 17.6406 58.7811 17.6406H8.03113C7.78424 17.6406 7.5398 17.592 7.31171 17.4975C7.08361 17.403 6.87636 17.2646 6.70178 17.09C6.52721 16.9154 6.38873 16.7082 6.29425 16.4801C6.19977 16.252 6.15112 16.0075 6.15112 15.7606C6.15112 15.5137 6.19977 15.2693 6.29425 15.0412C6.38873 14.8131 6.52721 14.6058 6.70178 14.4313C6.87636 14.2567 7.08361 14.1182 7.31171 14.0237C7.5398 13.9292 7.78424 13.8806 8.03113 13.8806V13.8806ZM60.0311 24.9506H6.83112L6.97113 24.3406C7.23079 23.2164 7.56486 22.1106 7.97113 21.0306L8.09113 20.7106H58.8311L58.9511 21.0406C59.3541 22.1183 59.6881 23.2205 59.9511 24.3406L60.0311 24.9506ZM51.3211 50.7406C46.3713 55.0795 40.0134 57.4716 33.4312 57.4716C26.8489 57.4716 20.4909 55.0795 15.5411 50.7406L14.5411 49.8706H52.2911L51.3211 50.7406ZM58.8011 46.8006H8.03113C7.53252 46.8006 7.05435 46.6025 6.70178 46.25C6.34921 45.8974 6.15112 45.4192 6.15112 44.9206C6.15112 44.422 6.34921 43.9438 6.70178 43.5913C7.05435 43.2387 7.53252 43.0406 8.03113 43.0406H58.7811C59.2797 43.0406 59.7579 43.2387 60.1105 43.5913C60.463 43.9438 60.6611 44.422 60.6611 44.9206C60.6611 45.4192 60.463 45.8974 60.1105 46.25C59.7579 46.6025 59.2797 46.8006 58.7811 46.8006H58.8011ZM6.80115 35.7306H60.0011L59.8611 36.3406C59.5982 37.464 59.2642 38.5696 58.8611 39.6506L58.7411 39.9806H8.09113L7.97113 39.6506C7.56352 38.5711 7.22943 37.4652 6.97113 36.3406L6.80115 35.7306ZM62.0911 32.6206H4.70111C4.08581 32.6206 3.49569 32.3762 3.06061 31.9411C2.62552 31.506 2.3811 30.9159 2.3811 30.3006C2.3811 29.6853 2.62552 29.0952 3.06061 28.6601C3.49569 28.225 4.08581 27.9806 4.70111 27.9806H62.0911C62.7064 27.9806 63.2965 28.225 63.7316 28.6601C64.1667 29.0952 64.4111 29.6853 64.4111 30.3006C64.4111 30.9159 64.1667 31.506 63.7316 31.9411C63.2965 32.3762 62.7064 32.6206 62.0911 32.6206V32.6206Z" fill="white"/>
</svg>
