<svg width="30" height="30" viewBox="0 0 30 30" fill="none" xmlns="http://www.w3.org/2000/svg">
<path d="M19.7367 30H10.2633C7.54214 29.9974 4.93316 28.9152 3.00899 26.991C1.08481 25.0668 0.00264751 22.4579 0 19.7367L0 10.2633C0.00264751 7.54214 1.08481 4.93316 3.00899 3.00899C4.93316 1.08481 7.54214 0.00264751 10.2633 0L19.7367 0C22.4579 0.00264751 25.0668 1.08481 26.991 3.00899C28.9152 4.93316 29.9974 7.54214 30 10.2633V19.7367C29.9974 22.4579 28.9152 25.0668 26.991 26.991C25.0668 28.9152 22.4579 29.9974 19.7367 30ZM10.1167 1.16667C7.74406 1.17019 5.46964 2.11427 3.79196 3.79196C2.11427 5.46964 1.17019 7.74406 1.16667 10.1167V19.8833C1.17019 22.2559 2.11427 24.5304 3.79196 26.208C5.46964 27.8857 7.74406 28.8298 10.1167 28.8333H19.8833C22.2559 28.8298 24.5304 27.8857 26.208 26.208C27.8857 24.5304 28.8298 22.2559 28.8333 19.8833V10.1167C28.8298 7.74406 27.8857 5.46964 26.208 3.79196C24.5304 2.11427 22.2559 1.17019 19.8833 1.16667H10.1167Z" fill="white"/>
<path d="M26.1666 15.0003C26.1664 14.6647 26.0608 14.3378 25.8646 14.0656C25.6684 13.7934 25.3916 13.5898 25.0733 13.4836L24.98 13.4536V13.3536C24.868 12.67 24.686 11.9998 24.4366 11.3536L24.3966 11.2503L24.4766 11.1736C24.6191 11.039 24.7324 10.8768 24.8098 10.6968C24.8872 10.5168 24.927 10.3229 24.9266 10.1269C24.9258 9.74205 24.7723 9.37325 24.4998 9.10142C24.2273 8.82958 23.8582 8.67692 23.4733 8.67692H22.88L22.83 8.61692C21.8839 7.45168 20.6898 6.51218 19.3347 5.86688C17.9796 5.22157 16.4976 4.88672 14.9966 4.88672C13.4957 4.88672 12.0137 5.22157 10.6586 5.86688C9.30345 6.51218 8.10936 7.45168 7.16331 8.61692L7.11331 8.67692H6.54331C6.3529 8.67692 6.16434 8.71443 5.98842 8.7873C5.8125 8.86017 5.65265 8.96697 5.51801 9.10162C5.38336 9.23626 5.27656 9.39611 5.20369 9.57203C5.13082 9.74795 5.09331 9.93651 5.09331 10.1269C5.09216 10.3227 5.13121 10.5166 5.20805 10.6966C5.28488 10.8766 5.39786 11.039 5.53998 11.1736L5.61998 11.2503L5.57998 11.3536C5.33108 12 5.14902 12.6701 5.03665 13.3536V13.4536L4.93998 13.4836C4.62228 13.5903 4.34613 13.7942 4.15049 14.0663C3.95485 14.3384 3.84961 14.6651 3.84961 15.0003C3.84961 15.3354 3.95485 15.6621 4.15049 15.9342C4.34613 16.2063 4.62228 16.4102 4.93998 16.5169L5.03665 16.5469V16.6469C5.14814 17.3306 5.33023 18.0008 5.57998 18.6469L5.61998 18.7503L5.53998 18.8269C5.39801 18.9616 5.28514 19.124 5.20832 19.304C5.1315 19.484 5.09236 19.6779 5.09331 19.8736C5.09331 20.064 5.13082 20.2526 5.20369 20.4285C5.27656 20.6044 5.38336 20.7642 5.51801 20.8989C5.65265 21.0335 5.8125 21.1403 5.98842 21.2132C6.16434 21.2861 6.3529 21.3236 6.54331 21.3236H7.11998L7.16998 21.3869C8.11637 22.5516 9.31058 23.4906 10.6657 24.1356C12.0207 24.7805 13.5026 25.1152 15.0033 25.1152C16.504 25.1152 17.9859 24.7805 19.341 24.1356C20.696 23.4906 21.8903 22.5516 22.8366 21.3869L22.8866 21.3236H23.4633C23.8482 21.3236 24.2173 21.1709 24.4898 20.8991C24.7623 20.6273 24.9158 20.2585 24.9166 19.8736C24.917 19.6777 24.8772 19.4837 24.7998 19.3037C24.7224 19.1237 24.6091 18.9615 24.4666 18.8269L24.39 18.7503L24.4266 18.6469C24.6764 18.0008 24.8585 17.3306 24.97 16.6469V16.5469L25.0633 16.5169C25.3834 16.4124 25.6624 16.2095 25.8605 15.9372C26.0586 15.6649 26.1657 15.337 26.1666 15.0003ZM9.03665 8.20026C10.6866 6.75397 12.8059 5.95659 15 5.95659C17.1941 5.95659 19.3134 6.75397 20.9633 8.20026L21.2966 8.49359H8.70665L9.03665 8.20026ZM6.54331 9.51359H23.4566C23.6228 9.51359 23.7822 9.57961 23.8998 9.69714C24.0173 9.81466 24.0833 9.97405 24.0833 10.1403C24.0833 10.3065 24.0173 10.4659 23.8998 10.5834C23.7822 10.7009 23.6228 10.7669 23.4566 10.7669H6.54331C6.37711 10.7669 6.21772 10.7009 6.10019 10.5834C5.98267 10.4659 5.91665 10.3065 5.91665 10.1403C5.91665 9.97405 5.98267 9.81466 6.10019 9.69714C6.21772 9.57961 6.37711 9.51359 6.54331 9.51359ZM23.8766 13.2036H6.13331L6.17998 13.0003C6.26809 12.6259 6.37942 12.2574 6.51331 11.8969L6.55331 11.7903H23.4566L23.4966 11.8969C23.6305 12.2574 23.7419 12.6259 23.83 13.0003L23.8766 13.2036ZM20.9633 21.8003C19.3134 23.2465 17.1941 24.0439 15 24.0439C12.8059 24.0439 10.6866 23.2465 9.03665 21.8003L8.70331 21.5103H21.2933L20.9633 21.8003ZM23.4566 20.4869H6.54331C6.37711 20.4869 6.21772 20.4209 6.10019 20.3034C5.98267 20.1859 5.91665 20.0265 5.91665 19.8603C5.91665 19.6941 5.98267 19.5347 6.10019 19.4171C6.21772 19.2996 6.37711 19.2336 6.54331 19.2336H23.4566C23.6228 19.2336 23.7822 19.2996 23.8998 19.4171C24.0173 19.5347 24.0833 19.6941 24.0833 19.8603C24.0833 20.0265 24.0173 20.1859 23.8998 20.3034C23.7822 20.4209 23.6228 20.4869 23.4566 20.4869ZM6.12331 16.7969H23.8666L23.82 17.0003C23.7323 17.3747 23.621 17.7432 23.4866 18.1036L23.4466 18.2103H6.54331L6.50331 18.1036C6.36942 17.7431 6.25809 17.3746 6.16998 17.0003L6.12331 16.7969ZM24.56 15.7736H5.42998C5.22488 15.7736 5.02818 15.6921 4.88315 15.5471C4.73812 15.4021 4.65665 15.2054 4.65665 15.0003C4.65665 14.7952 4.73812 14.5985 4.88315 14.4534C5.02818 14.3084 5.22488 14.2269 5.42998 14.2269H24.57C24.7751 14.2269 24.9718 14.3084 25.1168 14.4534C25.2618 14.5985 25.3433 14.7952 25.3433 15.0003C25.3433 15.2054 25.2618 15.4021 25.1168 15.5471C24.9718 15.6921 24.7751 15.7736 24.57 15.7736H24.56Z" fill="white"/>
</svg>
