<svg width="67" height="44" viewBox="0 0 67 44" fill="none" xmlns="http://www.w3.org/2000/svg">
<path d="M51.99 43.19C50.64 43.19 49.3454 42.6537 48.3908 41.6992C47.4362 40.7446 46.9 39.45 46.9 38.1V28.39H19.81V37.02C19.8074 38.3718 19.2692 39.6675 18.3133 40.6233C17.3574 41.5792 16.0618 42.1174 14.71 42.12H13.42C12.236 42.116 11.0901 41.7011 10.1782 40.9459C9.2662 40.1908 8.64473 39.1425 8.41998 37.98L8.32001 37.45L7.79999 37.6C7.3433 37.7226 6.87281 37.7865 6.39996 37.79H5.08997C3.7391 37.7874 2.44445 37.2489 1.49017 36.2927C0.5359 35.3366 -2.59683e-06 34.0409 0 32.69V9.42C0 8.07005 0.536224 6.77539 1.49078 5.82083C2.44534 4.86627 3.74001 4.33 5.08997 4.33H6.41998C6.88994 4.32769 7.3579 4.39166 7.81 4.52L8.33997 4.67L8.44 4.13C8.66679 2.96936 9.2891 1.92332 10.2009 1.17019C11.1126 0.417074 12.2574 0.00350644 13.44 0H14.75C16.1026 0 17.3998 0.53732 18.3562 1.49376C19.3126 2.45019 19.85 3.7474 19.85 5.1V15.73H46.94V6.19C46.94 4.83913 47.4759 3.54343 48.4302 2.58729C49.3844 1.63114 50.6791 1.09265 52.03 1.09H53.35C54.5345 1.09205 55.6813 1.50635 56.5937 2.26178C57.506 3.01721 58.127 4.06666 58.35 5.23L58.45 5.77L58.98 5.62C59.4316 5.48828 59.8996 5.42094 60.37 5.42H61.68C63.0318 5.42264 64.3275 5.96081 65.2833 6.91668C66.2392 7.87254 66.7773 9.16821 66.78 10.52V33.8C66.7773 35.1518 66.2392 36.4475 65.2833 37.4033C64.3275 38.3592 63.0318 38.8974 61.68 38.9H60.37C59.8996 38.8991 59.4316 38.8317 58.98 38.7L58.45 38.55L58.35 39.09C58.125 40.2515 57.5031 41.2986 56.5909 42.0521C55.6788 42.8055 54.5331 43.2184 53.35 43.22L51.99 43.19ZM51.99 4.24C51.7357 4.2413 51.4841 4.29285 51.2498 4.39168C51.0155 4.49051 50.8031 4.63467 50.6246 4.81588C50.4462 4.99709 50.3053 5.21177 50.2101 5.44759C50.115 5.68341 50.0674 5.93571 50.07 6.19V38.13C50.07 38.3821 50.1196 38.6318 50.2161 38.8648C50.3126 39.0977 50.454 39.3094 50.6323 39.4876C50.8106 39.6659 51.0223 39.8074 51.2552 39.9038C51.4882 40.0003 51.7379 40.05 51.99 40.05H53.31C53.5621 40.05 53.8118 40.0003 54.0447 39.9038C54.2777 39.8074 54.4893 39.6659 54.6676 39.4876C54.8459 39.3094 54.9873 39.0977 55.0838 38.8648C55.1803 38.6318 55.23 38.3821 55.23 38.13V6.19C55.23 5.67986 55.028 5.19047 54.6682 4.82881C54.3084 4.46715 53.8201 4.26264 53.31 4.26L51.99 4.24ZM13.42 3.19C12.9098 3.18999 12.4204 3.39196 12.0588 3.75175C11.6971 4.11153 11.4926 4.59987 11.49 5.11V37.02C11.4926 37.5311 11.6968 38.0204 12.0582 38.3818C12.4195 38.7432 12.9089 38.9474 13.42 38.95H14.73C15.241 38.9474 15.7304 38.7432 16.0918 38.3818C16.4532 38.0204 16.6573 37.5311 16.66 37.02V5.09C16.6521 4.57987 16.4425 4.09362 16.0771 3.73757C15.7117 3.38153 15.2201 3.18465 14.71 3.19H13.42ZM60.35 8.62C59.8423 8.62256 59.3559 8.82398 58.9951 9.18106C58.6343 9.53814 58.4278 10.0224 58.42 10.53V33.8C58.4226 34.3111 58.6268 34.8004 58.9882 35.1618C59.3495 35.5232 59.8389 35.7274 60.35 35.73H61.66C62.171 35.7274 62.6604 35.5232 63.0218 35.1618C63.3832 34.8004 63.5873 34.3111 63.59 33.8V10.53C63.5873 10.0189 63.3832 9.52956 63.0218 9.16819C62.6604 8.80681 62.171 8.60263 61.66 8.6L60.35 8.62ZM5.07996 7.52C4.56982 7.51999 4.08047 7.72196 3.71881 8.08175C3.35715 8.44153 3.15261 8.92987 3.14996 9.44V32.69C3.14996 33.2019 3.35333 33.6928 3.71527 34.0547C4.07722 34.4167 4.56809 34.62 5.07996 34.62H6.41998C6.6738 34.6213 6.9254 34.5723 7.16016 34.4758C7.39491 34.3793 7.60818 34.2372 7.78766 34.0577C7.96714 33.8782 8.10923 33.6649 8.20575 33.4301C8.30227 33.1954 8.3513 32.9438 8.34998 32.69V9.42C8.34998 9.16702 8.29999 8.91653 8.20288 8.68293C8.10577 8.44933 7.96347 8.23723 7.78412 8.05881C7.60477 7.88039 7.39194 7.73917 7.15784 7.64327C6.92374 7.54737 6.67296 7.49868 6.41998 7.5L5.07996 7.52ZM19.81 25.19H46.9V18.91H19.81V25.19Z" fill="#999999"/>
</svg>
