<svg width="30" height="30" viewBox="0 0 30 30" fill="none" xmlns="http://www.w3.org/2000/svg">
<path d="M19.7367 30H10.2633C7.54214 29.9974 4.93316 28.9152 3.00899 26.991C1.08481 25.0668 0.00264751 22.4579 0 19.7367L0 10.2633C0.00264751 7.54214 1.08481 4.93316 3.00899 3.00899C4.93316 1.08481 7.54214 0.00264751 10.2633 0L19.7367 0C22.4579 0.00264751 25.0668 1.08481 26.991 3.00899C28.9152 4.93316 29.9974 7.54214 30 10.2633V19.7367C29.9974 22.4579 28.9152 25.0668 26.991 26.991C25.0668 28.9152 22.4579 29.9974 19.7367 30ZM10.1167 1.16667C7.74406 1.17019 5.46964 2.11427 3.79196 3.79196C2.11427 5.46964 1.17019 7.74406 1.16667 10.1167V19.8833C1.17019 22.2559 2.11427 24.5304 3.79196 26.208C5.46964 27.8857 7.74406 28.8298 10.1167 28.8333H19.8833C22.2559 28.8298 24.5304 27.8857 26.208 26.208C27.8857 24.5304 28.8298 22.2559 28.8333 19.8833V10.1167C28.8298 7.74406 27.8857 5.46964 26.208 3.79196C24.5304 2.11427 22.2559 1.17019 19.8833 1.16667H10.1167Z" fill="white"/>
<path d="M20.7767 15.6266C19.7219 15.6266 18.6907 15.3138 17.8137 14.7278C16.9366 14.1418 16.253 13.3088 15.8493 12.3343C15.4457 11.3597 15.3401 10.2874 15.5458 9.25281C15.7516 8.21825 16.2596 7.26794 17.0055 6.52206C17.7513 5.77618 18.7016 5.26823 19.7362 5.06244C20.7708 4.85665 21.8431 4.96227 22.8177 5.36594C23.7922 5.76961 24.6252 6.45319 25.2112 7.33026C25.7972 8.20732 26.11 9.23846 26.11 10.2933C26.11 11.7078 25.5481 13.0643 24.5479 14.0645C23.5477 15.0647 22.1912 15.6266 20.7767 15.6266ZM20.7767 6.2033C19.9678 6.2033 19.177 6.44317 18.5044 6.89259C17.8318 7.342 17.3076 7.98077 16.998 8.72812C16.6885 9.47547 16.6075 10.2978 16.7653 11.0912C16.9231 11.8846 17.3126 12.6134 17.8846 13.1854C18.4566 13.7574 19.1854 14.1469 19.9788 14.3047C20.7722 14.4625 21.5945 14.3815 22.3419 14.072C23.0892 13.7624 23.728 13.2382 24.1774 12.5656C24.6268 11.893 24.8667 11.1022 24.8667 10.2933C24.8658 9.20883 24.4346 8.16904 23.6678 7.4022C22.901 6.63537 21.8612 6.20418 20.7767 6.2033Z" fill="white"/>
<path d="M20.2134 13.7333H20.1334C19.4974 13.624 18.8996 13.3544 18.3967 12.95C18.3479 12.9103 18.3074 12.8615 18.2775 12.8062C18.2475 12.7509 18.2288 12.6903 18.2223 12.6278C18.2158 12.5653 18.2217 12.5021 18.2396 12.4418C18.2575 12.3816 18.2871 12.3254 18.3267 12.2766C18.3664 12.2278 18.4152 12.1873 18.4705 12.1574C18.5258 12.1274 18.5864 12.1087 18.6489 12.1022C18.7114 12.0957 18.7746 12.1016 18.8349 12.1195C18.8951 12.1374 18.9513 12.167 19.0001 12.2066C19.3772 12.5105 19.8259 12.7125 20.3034 12.7933C20.4205 12.8132 20.5258 12.8763 20.5985 12.9702C20.6712 13.064 20.706 13.1818 20.6959 13.3001C20.6858 13.4184 20.6317 13.5286 20.5441 13.6088C20.4566 13.6891 20.3421 13.7335 20.2234 13.7333H20.2134Z" fill="white"/>
<path d="M21.3934 13.7232C21.2771 13.7209 21.1657 13.6757 21.0806 13.5965C20.9954 13.5173 20.9424 13.4094 20.9317 13.2936C20.921 13.1778 20.9533 13.0621 21.0225 12.9685C21.0916 12.875 21.1928 12.8102 21.3067 12.7866C21.5201 12.746 21.7281 12.6811 21.9267 12.5932C21.9836 12.5681 22.0449 12.5543 22.1071 12.5529C22.1693 12.5514 22.2312 12.5622 22.2893 12.5846C22.3473 12.6071 22.4004 12.6407 22.4454 12.6837C22.4904 12.7266 22.5265 12.778 22.5517 12.8349C22.5769 12.8918 22.5906 12.9531 22.5921 13.0153C22.5936 13.0775 22.5828 13.1394 22.5603 13.1974C22.5379 13.2555 22.5042 13.3085 22.4613 13.3536C22.4183 13.3986 22.367 13.4347 22.31 13.4599C22.0439 13.5764 21.7655 13.6625 21.48 13.7166C21.4515 13.7222 21.4224 13.7245 21.3934 13.7232Z" fill="white"/>
<path d="M14.4902 23.6666H14.4102C13.7703 23.5512 13.1703 23.2747 12.6668 22.8633C12.5687 22.7846 12.5059 22.6702 12.4921 22.5451C12.4784 22.4201 12.5148 22.2948 12.5935 22.1966C12.6722 22.0985 12.7866 22.0356 12.9117 22.0219C13.0367 22.0081 13.162 22.0446 13.2602 22.1233C13.6379 22.4268 14.0862 22.6298 14.5635 22.7133C14.6261 22.7181 14.6871 22.7352 14.7431 22.7636C14.7991 22.792 14.849 22.8312 14.8898 22.8788C14.9307 22.9265 14.9618 22.9817 14.9813 23.0414C15.0008 23.1011 15.0083 23.164 15.0035 23.2266C14.9987 23.2892 14.9816 23.3503 14.9532 23.4062C14.9248 23.4622 14.8856 23.5121 14.838 23.5529C14.7903 23.5938 14.7351 23.6249 14.6754 23.6444C14.6157 23.6639 14.5528 23.6714 14.4902 23.6666Z" fill="white"/>
<path d="M15.6668 23.6431C15.5474 23.6451 15.4317 23.602 15.3428 23.5223C15.254 23.4425 15.1985 23.3322 15.1875 23.2133C15.1766 23.0945 15.2109 22.9758 15.2837 22.8812C15.3565 22.7866 15.4624 22.723 15.5801 22.7032C15.7934 22.6637 16.0014 22.5999 16.2001 22.5132C16.315 22.4623 16.4454 22.4592 16.5627 22.5045C16.6799 22.5499 16.7743 22.6399 16.8251 22.7548C16.8759 22.8697 16.879 23.0002 16.8337 23.1174C16.7884 23.2346 16.6984 23.329 16.5834 23.3798C16.3175 23.4968 16.039 23.5829 15.7534 23.6365L15.6668 23.6431Z" fill="white"/>
<path d="M7.09657 16.8733C7.03078 16.8733 6.96583 16.8585 6.90657 16.83C6.31855 16.5745 5.80481 16.1743 5.41324 15.6666C5.33721 15.5663 5.30415 15.4398 5.32134 15.3151C5.33853 15.1904 5.40456 15.0776 5.5049 15.0016C5.60524 14.9256 5.73168 14.8925 5.85639 14.9097C5.9811 14.9269 6.09387 14.9929 6.1699 15.0933C6.46117 15.4799 6.84681 15.7852 7.2899 15.9799C7.38839 16.0251 7.46857 16.1024 7.51724 16.1992C7.56591 16.2959 7.58016 16.4064 7.55765 16.5124C7.53513 16.6183 7.4772 16.7135 7.39339 16.7821C7.30958 16.8507 7.20489 16.8888 7.09657 16.8899V16.8733Z" fill="white"/>
<path d="M8.45015 17.1567C8.37349 17.1567 8.29349 17.1567 8.21682 17.1567C8.15248 17.1562 8.08892 17.1425 8.03004 17.1166C7.97115 17.0906 7.91818 17.0529 7.87435 17.0058C7.83052 16.9587 7.79675 16.9032 7.77512 16.8426C7.75348 16.782 7.74443 16.7176 7.74851 16.6534C7.7526 16.5892 7.76973 16.5264 7.79887 16.4691C7.82801 16.4117 7.86854 16.3609 7.91799 16.3197C7.96743 16.2785 8.02475 16.2479 8.08645 16.2296C8.14815 16.2113 8.21292 16.2058 8.27682 16.2134C8.49307 16.2245 8.70989 16.2123 8.92349 16.1767C8.98477 16.1662 9.04752 16.1679 9.10816 16.1816C9.1688 16.1954 9.22614 16.2209 9.2769 16.2568C9.32767 16.2927 9.37086 16.3383 9.40402 16.3909C9.43718 16.4435 9.45965 16.5021 9.47016 16.5634C9.48066 16.6247 9.47899 16.6874 9.46525 16.7481C9.4515 16.8087 9.42595 16.866 9.39004 16.9168C9.35414 16.9676 9.30858 17.0108 9.25598 17.0439C9.20339 17.0771 9.14477 17.0996 9.08349 17.1101C8.87412 17.1439 8.66222 17.1595 8.45015 17.1567Z" fill="white"/>
<path d="M14.9767 25.6035C14.19 25.6036 13.4131 25.4298 12.7015 25.0943C11.9899 24.7589 11.3614 24.2703 10.8609 23.6634C10.3604 23.0565 10.0003 22.3464 9.80655 21.5839C9.61277 20.8215 9.59004 20.0257 9.73999 19.2535C9.74708 19.2141 9.74406 19.1736 9.73124 19.1357C9.71842 19.0978 9.6962 19.0638 9.66666 19.0368C9.64437 19.0131 9.61754 18.9941 9.58776 18.9809C9.55799 18.9677 9.52588 18.9607 9.49333 18.9601H9.47666H9.45333C9.11595 19.024 8.77336 19.0563 8.42999 19.0568C7.73089 19.0594 7.03823 18.9231 6.3922 18.6559C5.74618 18.3887 5.15965 17.9958 4.66666 17.5001C4.01421 16.8512 3.54074 16.0446 3.2923 15.1585C3.04386 14.2725 3.02889 13.3373 3.24884 12.4438C3.4688 11.5502 3.91619 10.7288 4.54754 10.0594C5.17889 9.38993 5.97271 8.89522 6.85182 8.62335C7.73094 8.35147 8.66544 8.31168 9.56449 8.50784C10.4635 8.704 11.2965 9.12944 11.9825 9.74279C12.6685 10.3561 13.1841 11.1366 13.4792 12.0081C13.7743 12.8797 13.8389 13.8129 13.6667 14.7168C13.6586 14.7595 13.6615 14.8035 13.6748 14.8449C13.6882 14.8862 13.7118 14.9236 13.7433 14.9535C13.7938 15.0039 13.862 15.0326 13.9333 15.0335H14C14.3296 14.9705 14.6644 14.9381 15 14.9368C16.4145 14.9195 17.7779 15.4649 18.7903 16.4529C19.8027 17.4409 20.3811 18.7906 20.3983 20.2051C20.4156 21.6196 19.8702 22.983 18.8822 23.9954C17.8942 25.0078 16.5445 25.5862 15.13 25.6035H14.9767ZM9.49333 17.7168C9.71305 17.7175 9.92994 17.7665 10.1286 17.8603C10.3274 17.954 10.503 18.0903 10.6433 18.2595C10.7835 18.4287 10.8848 18.6266 10.9401 18.8392C10.9955 19.0519 11.0034 19.2741 10.9633 19.4901C10.8485 20.081 10.8656 20.69 11.0133 21.2736C11.1609 21.8571 11.4356 22.4009 11.8177 22.8661C12.1998 23.3313 12.6798 23.7064 13.2236 23.9646C13.7673 24.2229 14.3614 24.3579 14.9633 24.3601H15.0967C15.6515 24.3455 16.1975 24.2173 16.7009 23.9834C17.2043 23.7495 17.6544 23.4148 18.0233 23.0001C18.5493 22.4133 18.8946 21.6871 19.0177 20.9087C19.1407 20.1303 19.0363 19.3329 18.7169 18.6125C18.3976 17.8921 17.8769 17.2793 17.2175 16.8477C16.5581 16.4162 15.788 16.1844 15 16.1801C14.7416 16.1796 14.4837 16.2042 14.23 16.2535C13.9884 16.2972 13.7397 16.2818 13.5053 16.2085C13.2709 16.1352 13.0578 16.0063 12.8842 15.8326C12.7105 15.659 12.5815 15.4458 12.5082 15.2115C12.4349 14.9771 12.4195 14.7284 12.4633 14.4868C12.6184 13.6599 12.5145 12.8054 12.1658 12.0398C11.8172 11.2741 11.2407 10.6348 10.5152 10.209C9.78965 9.78317 8.95037 9.59164 8.11193 9.66055C7.27349 9.72947 6.47675 10.0555 5.83047 10.594C5.18419 11.1326 4.71987 11.8575 4.50089 12.6698C4.28191 13.482 4.31895 14.3421 4.60695 15.1325C4.89495 15.9229 5.41987 16.6052 6.11006 17.0862C6.80025 17.5673 7.62207 17.8235 8.46333 17.8201C8.72499 17.819 8.98604 17.7945 9.24333 17.7468C9.32553 17.7289 9.40923 17.7189 9.49333 17.7168Z" fill="white"/>
</svg>
