<svg width="54" height="66" viewBox="0 0 54 66" fill="none" xmlns="http://www.w3.org/2000/svg">
<path d="M21.8203 49.0704C22.5403 49.0704 23.0503 48.6704 23.0503 48.0704V46.0704L23.1103 46.0004L24.8203 48.5804C24.9164 48.7407 25.0528 48.8731 25.216 48.9643C25.3792 49.0556 25.5634 49.1025 25.7503 49.1004C26.0917 49.1024 26.4218 48.9777 26.6767 48.7506C26.9316 48.5234 27.0932 48.2098 27.1303 47.8704C27.1152 47.7 27.0528 47.5372 26.9503 47.4004L24.7203 44.0004L26.4903 41.7804C26.6145 41.6088 26.6811 41.4022 26.6803 41.1904C26.6425 40.8565 26.4868 40.5472 26.2411 40.318C25.9954 40.0888 25.676 39.9549 25.3403 39.9404C25.1817 39.9411 25.0255 39.9796 24.8846 40.0526C24.7438 40.1256 24.6224 40.2311 24.5303 40.3604L23.0303 42.3604V40.8604C23.0303 40.3004 22.5303 39.8604 21.8003 39.8604C21.0703 39.8604 20.5703 40.2404 20.5703 40.8604V48.1104C20.5903 48.6804 21.1003 49.0704 21.8203 49.0704Z" fill="#999999"/>
<path d="M30.4504 49.1404C30.8662 49.1845 31.2866 49.1363 31.6816 48.9991C32.0767 48.862 32.4365 48.6393 32.7355 48.347C33.0345 48.0547 33.2653 47.7 33.4113 47.3081C33.5574 46.9163 33.6151 46.4971 33.5804 46.0804V44.7504C33.5804 44.4852 33.475 44.2308 33.2875 44.0433C33.0999 43.8557 32.8456 43.7504 32.5804 43.7504H30.6904C30.4671 43.762 30.2542 43.8481 30.0856 43.9949C29.9171 44.1418 29.8025 44.3408 29.7604 44.5604V42.9704C29.7604 42.3204 30.0104 42.1904 30.4304 42.1904C30.8504 42.1904 31.0604 42.3804 31.0904 42.8004C31.1204 43.2204 31.4304 43.8004 32.3204 43.8004C32.4849 43.8247 32.6529 43.8107 32.8111 43.7595C32.9693 43.7083 33.1136 43.6212 33.2326 43.505C33.3517 43.3889 33.4423 43.2468 33.4974 43.0899C33.5525 42.933 33.5706 42.7655 33.5504 42.6004C33.5504 41.0504 32.2404 39.9604 30.3704 39.9604C29.9585 39.922 29.5432 39.9748 29.1541 40.1149C28.7649 40.255 28.4112 40.4789 28.1183 40.771C27.8253 41.063 27.6002 41.4158 27.4589 41.8046C27.3175 42.1933 27.2634 42.6084 27.3004 43.0204V46.1304C27.2729 46.5449 27.3367 46.9605 27.4874 47.3477C27.638 47.7349 27.8717 48.0843 28.1721 48.3713C28.4725 48.6584 28.8322 48.876 29.2258 49.0089C29.6195 49.1417 30.0375 49.1866 30.4504 49.1404ZM30.7204 45.9304H31.1204V46.0804C31.1204 46.7304 30.8504 46.8604 30.4504 46.8604C30.0504 46.8604 29.7904 46.7304 29.7904 46.0804V45.0804C29.8244 45.3072 29.9354 45.5155 30.1047 45.6703C30.274 45.825 30.4914 45.9168 30.7204 45.9304Z" fill="#999999"/>
<path d="M26.9506 57.2204C29.5494 57.2204 32.0899 56.4498 34.2507 55.0059C36.4116 53.5621 38.0958 51.5099 39.0903 49.1089C40.0849 46.7079 40.3451 44.0659 39.8381 41.5169C39.3311 38.968 38.0796 36.6267 36.2419 34.7891C34.4043 32.9514 32.0629 31.6999 29.514 31.1929C26.9651 30.6859 24.3231 30.9461 21.9221 31.9407C19.5211 32.9352 17.4689 34.6194 16.025 36.7802C14.5812 38.9411 13.8105 41.4816 13.8105 44.0804C13.8132 47.5646 15.1985 50.9052 17.6621 53.3689C20.1258 55.8326 23.4664 57.2178 26.9506 57.2204ZM16.3306 44.0804C16.3286 41.9796 16.9497 39.9253 18.1155 38.1776C19.2812 36.4298 20.9391 35.067 22.8795 34.2617C24.8199 33.4564 26.9556 33.2446 29.0163 33.6533C31.077 34.0619 32.9702 35.0726 34.4565 36.5574C35.9427 38.0423 36.9552 39.9345 37.3658 41.9949C37.7764 44.0552 37.5666 46.1911 36.7631 48.1322C35.9596 50.0734 34.5984 51.7326 32.8517 52.8999C31.1051 54.0673 29.0514 54.6904 26.9506 54.6904C24.1357 54.6904 21.436 53.5729 19.4446 51.5835C17.4533 49.594 16.3332 46.8953 16.3306 44.0804Z" fill="#999999"/>
<path d="M9.37 61.3105C13.66 64.2206 19.74 65.7505 26.94 65.7505C34.14 65.7505 40.23 64.2206 44.52 61.3105C49.64 57.8505 52.23 52.6705 52.23 45.9105C52.226 41.0815 50.8378 36.3549 48.23 32.2905C48.0199 31.951 47.8772 31.5741 47.81 31.1805V31.0605C47.81 31.0005 47.81 30.9305 47.81 30.9205V30.5305C47.8355 30.0941 47.9622 29.6696 48.18 29.2905L50.87 24.6405L52.5 21.6405L52.7 21.2205L52.95 20.6205C53.1 20.2005 53.25 19.7905 53.38 19.3505C53.43 19.1605 53.49 18.9605 53.53 18.7705C53.64 18.3405 53.72 17.9105 53.8 17.4005C53.8 17.2005 53.86 17.0405 53.88 16.8905C53.93 16.4405 53.96 15.9905 53.97 15.5505V15.4305C53.97 15.2805 53.97 15.1305 53.97 14.9905C53.97 14.5505 53.97 14.0905 53.88 13.5805C53.88 13.5805 53.88 13.2005 53.88 13.0905C53.81 12.6105 53.71 12.0905 53.59 11.6105C53.54 11.4105 53.52 11.3105 53.5 11.2105C53.1366 9.94386 52.6159 8.72771 51.95 7.59054C50.6316 5.26991 48.7178 3.34307 46.4062 2.00885C44.0947 0.674634 41.4689 -0.0186461 38.8 0.000544269H15.12C12.4477 -0.022218 9.8178 0.669368 7.50238 2.00377C5.18696 3.33817 3.27009 5.26693 1.95001 7.59054C1.28283 8.73873 0.768454 9.96913 0.419983 11.2505C0.415571 11.3271 0.415571 11.4039 0.419983 11.4805C0.281263 12.0177 0.171152 12.5618 0.0900269 13.1105C0.0900269 13.2305 0.0900269 13.3705 0.0900269 13.4805V13.5805C0.0335163 14.0552 0.00344295 14.5326 0 15.0105C0 15.1605 0 15.3205 0 15.4505V15.5605C0 16.0105 2.68519e-05 16.4705 0.0900269 16.9305C0.0900269 17.0905 0.0900342 17.2505 0.160034 17.4105C0.250034 17.9505 0.330002 18.4105 0.440002 18.8105C0.490002 19.0105 0.540037 19.2105 0.600037 19.4105C0.73337 19.8305 0.873353 20.2405 1.02002 20.6405L1.27002 21.2505C1.33002 21.3905 1.4 21.5205 1.44 21.6105L1.98999 22.7305L2.54004 23.7305L3.06 24.6005L5.79004 29.3305C6.00212 29.6969 6.1254 30.1079 6.15002 30.5305C6.16014 30.6637 6.16014 30.7974 6.15002 30.9305V31.1305V31.3105C6.08122 31.6662 5.94546 32.0056 5.75 32.3105C3.13962 36.3737 1.75123 41.1011 1.75 45.9305C1.66 52.6705 4.25 57.8505 9.37 61.3105ZM3.95001 20.0405C3.88001 19.8805 3.81 19.7205 3.75 19.5605C3.62 19.2305 3.51003 18.9005 3.41003 18.5605C3.36003 18.4005 3.32003 18.2405 3.28003 18.0805C3.19003 17.7405 3.13001 17.3905 3.07001 17.0805C3.07001 16.9205 3.07 16.7705 3 16.6105C3 16.2505 2.93999 15.8905 2.92999 15.5305C2.92999 15.3805 2.92999 15.2405 2.92999 15.0905C2.93175 14.7059 2.95849 14.3217 3.01001 13.9405V13.5705C3.07001 13.1505 3.16001 12.7305 3.26001 12.3105L3.32001 12.0705C3.5974 11.0418 4.00754 10.0535 4.54004 9.13054C5.60378 7.27171 7.1418 5.72851 8.99707 4.65857C10.8523 3.58862 12.9584 3.03027 15.1 3.04054H38.75C40.8917 3.03027 42.9977 3.58862 44.853 4.65857C46.7082 5.72851 48.2463 7.27171 49.31 9.13054C49.8384 10.0555 50.2483 11.0433 50.53 12.0705L50.59 12.3205C50.69 12.7305 50.78 13.1505 50.84 13.5705V13.9505C50.8866 14.3289 50.9132 14.7094 50.92 15.0905C50.92 15.2405 50.92 15.3805 50.92 15.5305C50.92 15.8905 50.92 16.2505 50.85 16.6105C50.85 16.7705 50.8 16.9305 50.78 17.0905C50.72 17.4305 50.66 17.7705 50.57 18.0905C50.57 18.2505 50.49 18.4105 50.44 18.5805C50.34 18.9105 50.23 19.2405 50.1 19.5805C50.04 19.7405 49.97 19.9005 49.9 20.0605C49.83 20.2205 49.77 20.3305 49.7 20.4605L44.8 17.6305C44.9819 17.1799 45.1127 16.7103 45.19 16.2305C45.19 16.0305 45.21 15.8305 45.25 15.6305C45.255 15.5706 45.255 15.5104 45.25 15.4505C45.2601 15.2673 45.2601 15.0837 45.25 14.9005C45.25 14.8305 45.25 14.7505 45.25 14.6805C45.2372 14.5026 45.2138 14.3257 45.18 14.1505C45.18 14.0705 45.18 14.0005 45.18 13.9205C45.18 13.8405 45.1 13.5705 45.05 13.3905C45 13.2105 45 13.2605 44.98 13.1905C44.841 12.7685 44.6636 12.3602 44.45 11.9705C43.8597 10.9664 43.0161 10.1349 42.0035 9.55924C40.9909 8.98361 39.8448 8.68405 38.68 8.69055H15.22C14.0553 8.68405 12.9092 8.98361 11.8965 9.55924C10.8839 10.1349 10.0403 10.9664 9.45001 11.9705C9.22895 12.3648 9.04807 12.7802 8.91003 13.2105L8.85004 13.3905C8.85004 13.5705 8.76003 13.7505 8.72003 13.9305C8.71528 14.0005 8.71528 14.0706 8.72003 14.1405C8.68198 14.3217 8.65856 14.5056 8.65002 14.6905C8.65002 14.7605 8.65002 14.8205 8.65002 14.8905C8.64003 15.0804 8.64003 15.2707 8.65002 15.4605C8.64508 15.5104 8.64508 15.5607 8.65002 15.6105C8.69054 16.2972 8.84254 16.9727 9.10004 17.6105L4.15002 20.4005C4.08002 20.3105 4.01001 20.1705 3.95001 20.0405ZM42.02 17.0405L39.53 21.4005C39.2854 21.8202 38.9351 22.1684 38.514 22.4105C38.093 22.6527 37.6157 22.7802 37.13 22.7805C36.7875 22.7731 36.449 22.7054 36.13 22.5805C30.2533 20.301 23.7367 20.301 17.86 22.5805C17.5199 22.7168 17.1564 22.7848 16.79 22.7805C16.2978 22.793 15.8116 22.6711 15.3834 22.4279C14.9553 22.1848 14.6015 21.8296 14.36 21.4005L11.87 17.1005C11.5359 16.5322 11.3597 15.8848 11.3597 15.2255C11.3597 14.5662 11.5359 13.9189 11.87 13.3505C12.206 12.7583 12.6932 12.2658 13.2817 11.9232C13.8702 11.5806 14.5391 11.4003 15.22 11.4005H38.68C39.3524 11.3949 40.0146 11.5655 40.6006 11.8954C41.1866 12.2252 41.676 12.7028 42.02 13.2805C42.3617 13.8536 42.5421 14.5084 42.5421 15.1755C42.5421 15.8427 42.3617 16.4975 42.02 17.0705V17.0405ZM8.16998 33.9105C8.55982 33.2989 8.83441 32.6211 8.98004 31.9105C8.98004 31.7405 9.04 31.5605 9.06 31.3905C9.06501 31.3407 9.06501 31.2904 9.06 31.2405C9.06472 31.2242 9.06472 31.2069 9.06 31.1905V31.0305C9.07499 30.8008 9.07499 30.5703 9.06 30.3405C8.99152 29.479 8.73555 28.6428 8.31 27.8905L5.03003 22.2105L9.95001 19.2805L11.95 22.7705C12.0044 22.8546 12.0645 22.9348 12.13 23.0105C12.2252 23.166 12.3287 23.3162 12.44 23.4605L12.72 23.7805L13.05 24.1105L13.36 24.3705C13.5178 24.4963 13.685 24.61 13.86 24.7105C14.0133 24.809 14.1738 24.8959 14.34 24.9705C14.4787 25.044 14.6224 25.1075 14.77 25.1605L15.17 25.3005L15.59 25.4005C15.7247 25.4367 15.8616 25.4634 16 25.4805C16.2513 25.5208 16.5055 25.5409 16.76 25.5405C17.4717 25.5422 18.1773 25.4099 18.84 25.1505C24.0614 23.1304 29.8486 23.1304 35.07 25.1505C35.7327 25.4099 36.4384 25.5422 37.15 25.5405C38.1231 25.5419 39.0793 25.2866 39.9221 24.8002C40.7648 24.3139 41.4644 23.6137 41.95 22.7705L43.95 19.2805L48.84 22.1105L45.56 27.7905C45.1347 28.5321 44.8786 29.3585 44.81 30.2105C44.81 30.2105 44.81 30.2105 44.81 30.2805C44.795 30.507 44.795 30.7341 44.81 30.9605V31.1305C44.8053 31.1469 44.8053 31.1642 44.81 31.1805C44.805 31.2304 44.805 31.2807 44.81 31.3305C44.81 31.5005 44.81 31.6705 44.89 31.8405C45.0356 32.5511 45.3102 33.2289 45.7 33.8405C47.9981 37.4205 49.2166 41.5865 49.21 45.8405C49.21 51.5405 47.06 55.8905 42.82 58.7605C39.05 61.4005 33.55 62.7505 26.95 62.7505C20.35 62.7505 14.84 61.4005 11.05 58.8305C6.80999 55.9605 4.66003 51.6105 4.66003 45.9105C4.65341 41.6565 5.87191 37.4905 8.16998 33.9105Z" fill="#999999"/>
</svg>
