<svg width="30" height="30" viewBox="0 0 30 30" fill="none" xmlns="http://www.w3.org/2000/svg">
<path d="M19.7367 30H10.2633C7.54214 29.9974 4.93316 28.9152 3.00899 26.991C1.08481 25.0668 0.00264751 22.4579 0 19.7367L0 10.2633C0.00264751 7.54214 1.08481 4.93316 3.00899 3.00899C4.93316 1.08481 7.54214 0.00264751 10.2633 0L19.7367 0C22.4579 0.00264751 25.0668 1.08481 26.991 3.00899C28.9152 4.93316 29.9974 7.54214 30 10.2633V19.7367C29.9974 22.4579 28.9152 25.0668 26.991 26.991C25.0668 28.9152 22.4579 29.9974 19.7367 30ZM10.1167 1.16667C7.74406 1.17019 5.46964 2.11427 3.79196 3.79196C2.11427 5.46964 1.17019 7.74406 1.16667 10.1167V19.8833C1.17019 22.2559 2.11427 24.5304 3.79196 26.208C5.46964 27.8857 7.74406 28.8298 10.1167 28.8333H19.8833C22.2559 28.8298 24.5304 27.8857 26.208 26.208C27.8857 24.5304 28.8298 22.2559 28.8333 19.8833V10.1167C28.8298 7.74406 27.8857 5.46964 26.208 3.79196C24.5304 2.11427 22.2559 1.17019 19.8833 1.16667H10.1167Z" fill="white"/>
<path d="M20.6665 23.2434C20.5958 23.2439 20.5256 23.2303 20.4602 23.2035C20.3947 23.1768 20.3351 23.1373 20.2849 23.0874C20.2347 23.0375 20.1949 22.9782 20.1677 22.9129C20.1405 22.8476 20.1265 22.7775 20.1265 22.7068V21.6334L19.8665 21.8034C18.4236 22.7432 16.7386 23.2436 15.0165 23.2436C13.2945 23.2436 11.6095 22.7432 10.1665 21.8034L9.90655 21.6334V22.7068C9.90655 22.7775 9.89256 22.8476 9.86538 22.9129C9.8382 22.9782 9.79837 23.0375 9.74819 23.0874C9.698 23.1373 9.63844 23.1768 9.57295 23.2035C9.50745 23.2303 9.43731 23.2439 9.36655 23.2434H6.66655C6.52422 23.2434 6.38771 23.1869 6.28707 23.0862C6.18642 22.9856 6.12988 22.8491 6.12988 22.7068V14.3734C6.12988 13.2086 6.35931 12.0552 6.80507 10.979C7.25083 9.90286 7.90419 8.92504 8.72785 8.10138C9.5515 7.27772 10.5293 6.62437 11.6055 6.17861C12.6816 5.73285 13.8351 5.50342 14.9999 5.50342C16.1647 5.50342 17.3181 5.73285 18.3943 6.17861C19.4704 6.62437 20.4483 7.27772 21.2719 8.10138C22.0956 8.92504 22.7489 9.90286 23.1947 10.979C23.6405 12.0552 23.8699 13.2086 23.8699 14.3734V22.7068C23.8699 22.8491 23.8133 22.9856 23.7127 23.0862C23.6121 23.1869 23.4755 23.2434 23.3332 23.2434H20.6665ZM22.5032 19.1401C22.1528 19.6835 21.7461 20.1885 21.2899 20.6468L21.2399 20.6968L21.2065 20.8001V22.1667H22.8099V18.6667L22.5032 19.1401ZM9.88988 20.2568L9.94988 20.3067C11.3023 21.4569 13.007 22.1106 14.7817 22.1595C16.5563 22.2085 18.2945 21.6498 19.7083 20.576C21.1221 19.5022 22.1266 17.9777 22.5557 16.255C22.9847 14.5323 22.8124 12.7147 22.0673 11.1033C21.3223 9.49182 20.0491 8.18322 18.4588 7.39418C16.8684 6.60514 15.0562 6.38299 13.3224 6.76453C11.5885 7.14607 10.037 8.10841 8.92478 9.49216C7.81255 10.8759 7.20634 12.5981 7.20655 14.3734V22.1667H8.80988V14.3734C8.80727 12.9112 9.32186 11.4951 10.2626 10.3756C11.2034 9.25617 12.5097 8.50548 13.9506 8.25631C15.3915 8.00714 16.8741 8.27555 18.1362 9.01406C19.3982 9.75258 20.3585 10.9136 20.8471 12.2918C21.3356 13.6701 21.3211 15.1767 20.806 16.5452C20.2909 17.9138 19.3084 19.056 18.0323 19.7701C16.7562 20.4841 15.2688 20.7238 13.8329 20.4469C12.3971 20.1699 11.1055 19.3942 10.1865 18.2568L9.88988 17.8901V20.2568ZM14.9999 9.26342C13.9892 9.26342 13.0013 9.56311 12.1609 10.1246C11.3206 10.6861 10.6656 11.4842 10.2789 12.4179C9.89209 13.3516 9.7909 14.3791 9.98807 15.3703C10.1852 16.3616 10.6719 17.2721 11.3866 17.9867C12.1012 18.7014 13.0117 19.1881 14.003 19.3852C14.9942 19.5824 16.0217 19.4812 16.9554 19.0944C17.8891 18.7077 18.6872 18.0527 19.2487 17.2124C19.8102 16.372 20.1099 15.3841 20.1099 14.3734C20.1081 13.0187 19.5692 11.72 18.6112 10.762C17.6533 9.80412 16.3546 9.26518 14.9999 9.26342ZM14.9999 17.8768C14.3062 17.8768 13.6281 17.671 13.0513 17.2855C12.4746 16.9001 12.0251 16.3522 11.7598 15.7113C11.4945 15.0703 11.4253 14.3651 11.5608 13.6847C11.6964 13.0044 12.0307 12.3796 12.5215 11.8893C13.0122 11.399 13.6374 11.0653 14.3178 10.9304C14.9983 10.7955 15.7034 10.8654 16.3441 11.1313C16.9848 11.3972 17.5323 11.8472 17.9172 12.4243C18.3021 13.0014 18.5072 13.6797 18.5065 14.3734C18.5057 15.3029 18.1358 16.1939 17.4783 16.8509C16.8208 17.5078 15.9293 17.8768 14.9999 17.8768ZM14.9999 11.9468C14.5199 11.9468 14.0508 12.0891 13.6517 12.3557C13.2526 12.6224 12.9416 13.0014 12.7579 13.4448C12.5743 13.8882 12.5262 14.3761 12.6198 14.8468C12.7135 15.3176 12.9446 15.75 13.284 16.0893C13.6233 16.4287 14.0557 16.6598 14.5265 16.7535C14.9972 16.8471 15.4851 16.799 15.9285 16.6154C16.3719 16.4317 16.7509 16.1207 17.0176 15.7216C17.2842 15.3225 17.4265 14.8534 17.4265 14.3734C17.4257 13.7301 17.1697 13.1134 16.7148 12.6585C16.2599 12.2036 15.6432 11.9476 14.9999 11.9468Z" fill="white"/>
</svg>
