<svg width="70" height="50" viewBox="0 0 70 50" fill="none" xmlns="http://www.w3.org/2000/svg">
<path d="M46.2312 49.8501C45.2543 49.8521 44.2922 49.6116 43.4312 49.1501L3.3512 27.5001C2.57732 27.0869 1.92259 26.4818 1.4498 25.7428C0.977007 25.0039 0.702002 24.1558 0.651185 23.2801L0.0112011 12.5501C-0.0713385 11.1435 0.303986 9.74804 1.08096 8.57266C1.85794 7.39728 2.99476 6.50521 4.3212 6.03005L20.1212 0.430051C21.7939 -0.166531 23.6253 -0.141686 25.2812 0.500051L65.7112 16.0801C66.8547 16.5193 67.8311 17.3071 68.5023 18.3318C69.1734 19.3565 69.5054 20.5663 69.4512 21.7901L68.8912 34.6601C68.8454 35.4726 68.6019 36.2616 68.1819 36.9587C67.7619 37.6558 67.1781 38.2398 66.4812 38.6601L49.2512 49.0201C48.3393 49.5675 47.2948 49.8545 46.2312 49.8501ZM22.6012 3.54005C22.1585 3.53829 21.7187 3.6127 21.3012 3.76005L5.50119 9.35005C4.88772 9.56577 4.36097 9.97499 4.00025 10.5161C3.63952 11.0572 3.46437 11.7008 3.50119 12.3501L4.14121 23.0801C4.15957 23.3553 4.24708 23.6216 4.39566 23.854C4.54424 24.0865 4.74909 24.2778 4.99121 24.4101L45.1012 46.0401C45.4463 46.2227 45.8307 46.3188 46.2212 46.3201C46.6438 46.3219 47.0589 46.2078 47.4212 45.9901L64.6512 35.6601C64.8546 35.5405 65.0246 35.3715 65.1452 35.1687C65.2658 34.9659 65.3333 34.7359 65.3412 34.5001L65.9112 21.6401C65.9386 21.1522 65.8112 20.6681 65.5472 20.2569C65.2832 19.8457 64.8962 19.5283 64.4412 19.3501L24.0112 3.80005C23.5607 3.62917 23.083 3.54109 22.6012 3.54005Z" fill="#999999"/>
<path d="M61.4717 20.9406L46.6317 28.1306L9.10171 11.3506C8.75826 11.1955 8.36724 11.1831 8.01468 11.3163C7.66211 11.4494 7.37686 11.7172 7.22171 12.0606C7.06656 12.4041 7.05419 12.7951 7.18734 13.1477C7.3205 13.5002 7.58824 13.7855 7.9317 13.9406L45.2017 30.6006L44.8117 42.7306C44.8009 43.1066 44.9386 43.4717 45.195 43.7468C45.4514 44.0219 45.8059 44.185 46.1817 44.2006H46.2317C46.6015 44.2008 46.9567 44.0567 47.2219 43.7989C47.4871 43.5412 47.6413 43.1902 47.6517 42.8206L48.0517 30.6006L62.7117 23.5006C63.0512 23.3362 63.3114 23.0436 63.4352 22.6873C63.559 22.331 63.5361 21.9401 63.3717 21.6006C63.2073 21.2611 62.9147 21.0009 62.5584 20.8771C62.2021 20.7533 61.8112 20.7762 61.4717 20.9406Z" fill="#999999"/>
</svg>
