<svg width="30" height="30" viewBox="0 0 30 30" fill="none" xmlns="http://www.w3.org/2000/svg">
<path d="M21.2135 22.2031C20.7635 22.2031 20.3319 22.0243 20.0137 21.7061C19.6955 21.3879 19.5168 20.9564 19.5168 20.5064V17.2597H10.4835V20.1364C10.4835 20.5867 10.3048 21.0186 9.98671 21.3373C9.66862 21.656 9.23707 21.8355 8.78678 21.8364H8.35012C7.95545 21.8351 7.57349 21.6967 7.2695 21.445C6.96552 21.1933 6.75837 20.8439 6.68345 20.4564L6.65012 20.2797L6.47345 20.3264C6.32291 20.3703 6.16693 20.3927 6.01012 20.3931H5.57012C5.11952 20.3922 4.68763 20.2128 4.36901 19.8942C4.05039 19.5755 3.871 19.1437 3.87012 18.6931V10.9364C3.871 10.4858 4.05039 10.0539 4.36901 9.73528C4.68763 9.41666 5.11952 9.23727 5.57012 9.23639H6.00012C6.15693 9.2367 6.31291 9.25915 6.46345 9.30305L6.64012 9.35305L6.67345 9.17305C6.74905 8.78617 6.95649 8.43749 7.26041 8.18645C7.56434 7.93541 7.94592 7.79756 8.34012 7.79639H8.77678C9.22677 7.79639 9.65832 7.97514 9.97651 8.29333C10.2947 8.61152 10.4735 9.04307 10.4735 9.49305V13.0397H19.5068V9.86305C19.5068 9.41276 19.6854 8.98087 20.0035 8.66215C20.3216 8.34343 20.7532 8.16394 21.2035 8.16305H21.6668C22.0614 8.16437 22.4434 8.3027 22.7474 8.55441C23.0514 8.80611 23.2585 9.15556 23.3335 9.54305L23.3668 9.72305L23.5434 9.67305C23.694 9.62915 23.85 9.6067 24.0068 9.60639H24.4435C24.894 9.60727 25.3259 9.78666 25.6446 10.1053C25.9632 10.4239 26.1426 10.8558 26.1435 11.3064V19.0631C26.1426 19.5137 25.9632 19.9455 25.6446 20.2642C25.3259 20.5828 24.894 20.7622 24.4435 20.7631H24.0001C23.8433 20.7627 23.6873 20.7403 23.5368 20.6964L23.3601 20.6464L23.3268 20.8264C23.2512 21.2133 23.0437 21.5619 22.7398 21.813C22.4359 22.064 22.0543 22.2019 21.6601 22.2031H21.2135ZM21.2135 9.21972C21.0431 9.2206 20.88 9.28866 20.7595 9.40912C20.6391 9.52958 20.571 9.6927 20.5701 9.86305V20.5064C20.571 20.6764 20.6392 20.8392 20.7597 20.9591C20.8803 21.0791 21.0434 21.1464 21.2135 21.1464H21.6668C21.7511 21.1468 21.8347 21.1306 21.9127 21.0986C21.9908 21.0667 22.0617 21.0196 22.1215 20.9601C22.1813 20.9006 22.2287 20.8299 22.2611 20.7521C22.2935 20.6742 22.3101 20.5907 22.3101 20.5064V9.86305C22.3101 9.69243 22.2423 9.5288 22.1217 9.40815C22.001 9.2875 21.8374 9.21972 21.6668 9.21972H21.2135ZM8.35012 8.85305C8.26579 8.85261 8.18221 8.86884 8.10418 8.90081C8.02614 8.93278 7.9552 8.97985 7.89541 9.03932C7.83563 9.0988 7.78819 9.1695 7.75582 9.24736C7.72345 9.32523 7.70678 9.40873 7.70678 9.49305V20.1364C7.70678 20.307 7.77456 20.4706 7.89521 20.5913C8.01586 20.7119 8.17949 20.7797 8.35012 20.7797H8.78678C8.95683 20.7788 9.11961 20.7107 9.23954 20.5901C9.35946 20.4696 9.42679 20.3064 9.42678 20.1364V9.49305C9.42678 9.32331 9.35936 9.16053 9.23933 9.04051C9.11931 8.92048 8.95652 8.85305 8.78678 8.85305H8.35012ZM24.0001 10.6664C23.8298 10.6673 23.6666 10.7353 23.5462 10.8558C23.4257 10.9762 23.3577 11.1394 23.3568 11.3097V19.0631C23.3577 19.2334 23.4257 19.3965 23.5462 19.517C23.6666 19.6375 23.8298 19.7055 24.0001 19.7064H24.4368C24.6071 19.7055 24.7703 19.6375 24.8907 19.517C25.0112 19.3965 25.0792 19.2334 25.0801 19.0631V11.3064C25.0784 11.1355 25.009 10.9722 24.8872 10.8523C24.7654 10.7323 24.6011 10.6655 24.4301 10.6664H24.0001ZM5.57012 10.2931C5.39976 10.2939 5.23664 10.362 5.11618 10.4824C4.99572 10.6029 4.92766 10.766 4.92678 10.9364V18.6931C4.92853 18.8628 4.99698 19.0251 5.11734 19.1448C5.23771 19.2646 5.40034 19.3322 5.57012 19.3331H6.00012C6.08615 19.3357 6.17185 19.3212 6.25219 19.2903C6.33253 19.2594 6.40589 19.2128 6.46799 19.1532C6.53008 19.0936 6.57964 19.0222 6.61378 18.9432C6.64792 18.8642 6.66594 18.7791 6.66678 18.6931V10.9364C6.66638 10.85 6.64869 10.7646 6.61475 10.6852C6.58081 10.6058 6.53131 10.534 6.46917 10.4741C6.40703 10.4141 6.33352 10.3672 6.25296 10.3361C6.1724 10.305 6.08643 10.2904 6.00012 10.2931H5.57012ZM10.4835 16.2031H19.5168V14.0964H10.4835V16.2031Z" fill="white"/>
<path d="M19.7367 30H10.2633C7.54214 29.9974 4.93316 28.9152 3.00899 26.991C1.08481 25.0668 0.00264751 22.4579 0 19.7367L0 10.2633C0.00264751 7.54214 1.08481 4.93316 3.00899 3.00899C4.93316 1.08481 7.54214 0.00264751 10.2633 0L19.7367 0C22.4579 0.00264751 25.0668 1.08481 26.991 3.00899C28.9152 4.93316 29.9974 7.54214 30 10.2633V19.7367C29.9974 22.4579 28.9152 25.0668 26.991 26.991C25.0668 28.9152 22.4579 29.9974 19.7367 30ZM10.1167 1.16667C7.74406 1.17019 5.46964 2.11427 3.79196 3.79196C2.11427 5.46964 1.17019 7.74406 1.16667 10.1167V19.8833C1.17019 22.2559 2.11427 24.5304 3.79196 26.208C5.46964 27.8857 7.74406 28.8298 10.1167 28.8333H19.8833C22.2559 28.8298 24.5304 27.8857 26.208 26.208C27.8857 24.5304 28.8298 22.2559 28.8333 19.8833V10.1167C28.8298 7.74406 27.8857 5.46964 26.208 3.79196C24.5304 2.11427 22.2559 1.17019 19.8833 1.16667H10.1167Z" fill="white"/>
</svg>
