<svg width="30" height="30" viewBox="0 0 30 30" fill="none" xmlns="http://www.w3.org/2000/svg">
<path d="M19.7367 30H10.2633C7.54214 29.9974 4.93316 28.9152 3.00899 26.991C1.08481 25.0668 0.00264751 22.4579 0 19.7367L0 10.2633C0.00264751 7.54214 1.08481 4.93316 3.00899 3.00899C4.93316 1.08481 7.54214 0.00264751 10.2633 0L19.7367 0C22.4579 0.00264751 25.0668 1.08481 26.991 3.00899C28.9152 4.93316 29.9974 7.54214 30 10.2633V19.7367C29.9974 22.4579 28.9152 25.0668 26.991 26.991C25.0668 28.9152 22.4579 29.9974 19.7367 30ZM10.1167 1.16667C7.74406 1.17019 5.46964 2.11427 3.79196 3.79196C2.11427 5.46964 1.17019 7.74406 1.16667 10.1167V19.8833C1.17019 22.2559 2.11427 24.5304 3.79196 26.208C5.46964 27.8857 7.74406 28.8298 10.1167 28.8333H19.8833C22.2559 28.8298 24.5304 27.8857 26.208 26.208C27.8857 24.5304 28.8298 22.2559 28.8333 19.8833V10.1167C28.8298 7.74406 27.8857 5.46964 26.208 3.79196C24.5304 2.11427 22.2559 1.17019 19.8833 1.16667H10.1167Z" fill="white"/>
<path d="M4.35349 15.6134C4.04889 16.63 4.04884 17.7135 4.35334 18.73C4.65784 19.7466 5.25354 20.6517 6.06682 21.3334C7.54349 22.5267 9.08348 22.7367 11.0335 22.1201C12.9835 21.5034 15.0002 19.4567 15.9568 17.2267C16.9135 14.9967 18.2902 13.5601 19.1902 13.2601C20.0901 12.9601 23.1502 11.7401 25.2135 13.9267C25.2135 13.9267 26.9668 13.5701 25.8602 11.6901C24.7535 9.81007 19.3735 9.91674 17.0002 11.9134C14.6268 13.9101 14.2368 16.1667 13.4268 17.2267C12.6168 18.2867 11.0935 20.0267 9.53682 19.8201C7.98015 19.6134 6.75349 19.1301 6.42349 17.2267C6.19682 15.9434 7.48349 14.0367 8.95682 13.2767C10.4302 12.5167 12.9568 11.0901 13.6835 10.7567C14.4102 10.4234 15.6835 9.42341 17.5968 11.0567C17.5968 11.0567 19.0702 10.3234 20.0168 10.2534C20.0168 10.2534 17.0602 8.12341 15.7735 8.11674C14.4868 8.11007 11.8302 8.89674 9.70349 10.2767C7.57682 11.6567 5.23349 12.7967 4.35349 15.6134Z" fill="white"/>
<path d="M20.9199 12.9997C20.7099 13.043 23.1599 14.1797 24.8899 13.983C24.8899 13.9997 23.5032 12.493 20.9199 12.9997Z" fill="white"/>
</svg>
