<svg width="44" height="67" viewBox="0 0 44 67" fill="none" xmlns="http://www.w3.org/2000/svg">
<path d="M42.18 1.21117C41.7261 0.725733 41.1535 0.367092 40.5186 0.170672C39.8838 -0.0257478 39.2087 -0.0531507 38.56 0.0911691C37.9238 0.212339 37.3339 0.508662 36.8569 0.946796C36.3799 1.38493 36.0347 1.94749 35.86 2.57117L29.25 28.7412H4.83997C3.61307 28.6895 2.41556 29.1253 1.50879 29.9534C0.602021 30.7815 0.0596534 31.9346 0 33.1612V65.2112C0.00642626 65.3635 0.0428023 65.5132 0.107117 65.6515C0.171431 65.7897 0.262429 65.914 0.374817 66.0171C0.487205 66.1202 0.618773 66.2001 0.762085 66.2523C0.905397 66.3045 1.05759 66.3279 1.20996 66.3212H4.83997C5.12919 66.3319 5.41228 66.2359 5.63538 66.0516C5.85847 65.8672 6.00604 65.6072 6.04999 65.3212L8.04999 40.9212H29.57L37.57 65.5512C37.656 65.7879 37.8143 65.9916 38.0225 66.1334C38.2307 66.2752 38.4782 66.3479 38.73 66.3412H42.36C42.5368 66.3432 42.7119 66.3077 42.874 66.237C43.036 66.1663 43.1812 66.0621 43.3 65.9312C43.4126 65.8053 43.4933 65.6542 43.535 65.4905C43.5768 65.3269 43.5785 65.1556 43.54 64.9912L36.34 35.3712L42.99 3.96117C43.0889 3.47148 43.0669 2.96504 42.9257 2.48581C42.7846 2.00659 42.5286 1.56905 42.18 1.21117V1.21117ZM3.66998 64.1112H2.38V36.4812H5.90997L3.66998 64.1112ZM8.20001 38.7412L8.38 36.5312H28.11L28.83 38.7412H8.20001ZM39.58 64.1612L31.58 39.5312L30.58 36.5312H34.04L40.75 64.1612H39.58ZM40.58 3.57117L34.07 34.3212H2.41998V33.1612C2.44851 32.5474 2.71935 31.9701 3.17303 31.5558C3.62672 31.1415 4.22617 30.924 4.83997 30.9512H30.22C30.4842 30.9593 30.7437 30.8791 30.9574 30.7234C31.1711 30.5677 31.3268 30.3452 31.4 30.0912L38.22 3.09117C38.3104 2.80328 38.5052 2.55958 38.7661 2.40788C39.0269 2.25617 39.3351 2.20742 39.63 2.27117C39.9188 2.31573 40.1787 2.47139 40.3543 2.70492C40.5299 2.93845 40.6073 3.23137 40.57 3.52117L40.58 3.57117Z" fill="white"/>
</svg>
