<svg width="67" height="36" viewBox="0 0 67 36" fill="none" xmlns="http://www.w3.org/2000/svg">
<path d="M60.34 0H5.82999C0.569994 0 0 12.43 0 17.77C0 23.11 0.569994 35.54 5.82999 35.54H60.34C65.6 35.54 66.17 23.12 66.17 17.77C66.17 12.42 65.6 0 60.34 0ZM62.01 7.33H57.01C56.8244 6.16836 56.5537 5.02194 56.2 3.9H60.93C61.4515 4.98607 61.8152 6.14107 62.01 7.33V7.33ZM62.93 17.77C62.9424 20.3103 62.7921 22.8489 62.48 25.37H57.48C58.0666 20.3203 58.0666 15.2197 57.48 10.17H62.48C62.7915 12.6912 62.9418 15.2297 62.93 17.77V17.77ZM50.6 31.61C50.9642 30.5018 51.2483 29.3689 51.45 28.22H54.17C53.9491 29.3802 53.6142 30.5157 53.17 31.61H50.6ZM23.27 31.61C23.6377 30.5021 23.9251 29.3692 24.13 28.22H48.57C48.3491 29.3802 48.0142 30.5157 47.57 31.61H23.27ZM17.67 31.61C18.0342 30.5018 18.3183 29.3689 18.52 28.22H21.25C21.0347 29.3815 20.6996 30.5176 20.25 31.61H17.67ZM8.43999 31.61C8.80423 30.5018 9.08829 29.3689 9.28999 28.22H15.64C15.4191 29.3802 15.0842 30.5157 14.64 31.61H8.43999ZM14.7 3.9C15.1442 4.99431 15.4791 6.12982 15.7 7.29H9.35C9.14943 6.14084 8.86534 5.00784 8.5 3.9H14.7ZM20.3 3.9C20.7496 4.9924 21.0847 6.12847 21.3 7.29H18.57C18.3629 6.14033 18.0721 5.00732 17.7 3.9H20.3ZM47.63 3.9C48.0742 4.99431 48.4091 6.12982 48.63 7.29H24.13C23.9261 6.14059 23.6387 5.00758 23.27 3.9H47.63ZM53.23 3.9C53.6742 4.99431 54.0091 6.12982 54.23 7.29H51.51C51.2898 6.1393 50.9857 5.00627 50.6 3.9H53.23ZM55.11 17.73C55.1246 20.2701 54.9776 22.8086 54.67 25.33H51.91C52.1914 22.8063 52.3382 20.2693 52.35 17.73C52.3377 15.1907 52.1909 12.6538 51.91 10.13H54.67C54.9657 12.6656 55.0993 15.2174 55.07 17.77L55.11 17.73ZM9.7 10.17H16.09C16.3974 12.6915 16.5444 15.2299 16.53 17.77C16.5446 20.3101 16.3976 22.8486 16.09 25.37H9.7C10.2866 20.3203 10.2866 15.2197 9.7 10.17V10.17ZM18.93 10.17H21.7C22.2866 15.2197 22.2866 20.3203 21.7 25.37H18.93C19.5166 20.3203 19.5166 15.2197 18.93 10.17V10.17ZM24.54 10.17H49.02C49.6066 15.2197 49.6066 20.3203 49.02 25.37H24.55C24.8314 22.8463 24.9782 20.3093 24.99 17.77C24.9777 15.2307 24.8309 12.6938 24.55 10.17H24.54ZM57.04 28.17H62.04C61.8398 29.3448 61.4763 30.4859 60.96 31.56H56.2C56.5619 30.4682 56.846 29.352 57.05 28.22L57.04 28.17ZM3.24 17.77C3.24 10.09 4.45 5.29 5.24 3.94H5.43C6.28 5.94 7.31 10.56 7.31 17.77C7.31 24.98 6.31 29.66 5.43 31.61H5.24C4.45 30.26 3.24 25.46 3.24 17.77Z" fill="white"/>
</svg>
