<svg width="70" height="62" viewBox="0 0 70 62" fill="none" xmlns="http://www.w3.org/2000/svg">
<path d="M53.0264 32C49.8619 32 46.7685 31.0616 44.1373 29.3035C41.5061 27.5454 39.4553 25.0466 38.2443 22.1229C37.0333 19.1993 36.7164 15.9823 37.3338 12.8786C37.9512 9.77487 39.475 6.92394 41.7127 4.6863C43.9503 2.44866 46.8013 0.924806 49.9049 0.307443C53.0086 -0.309921 56.2257 0.0069325 59.1493 1.21793C62.073 2.42894 64.5718 4.4797 66.3299 7.11088C68.088 9.74207 69.0264 12.8355 69.0264 16C69.0264 20.2435 67.3407 24.3131 64.3401 27.3137C61.3395 30.3143 57.2698 32 53.0264 32ZM53.0264 3.73001C50.5992 3.73001 48.2265 4.44988 46.2085 5.79857C44.1905 7.14726 42.6178 9.06416 41.6894 11.3068C40.761 13.5494 40.5186 16.017 40.9929 18.3974C41.4671 20.7779 42.6367 22.9642 44.3537 24.6797C46.0707 26.3953 48.258 27.5632 50.6388 28.0355C53.0196 28.5078 55.487 28.2634 57.7288 27.3331C59.9707 26.4029 61.8863 24.8287 63.2334 22.8096C64.5804 20.7905 65.2984 18.4172 65.2964 15.99C65.2937 12.7375 63.9998 9.61918 61.699 7.32027C59.3983 5.02136 56.2789 3.73001 53.0264 3.73001Z" fill="#999999"/>
<path d="M51.3363 26.3202H51.0963C49.1889 25.9899 47.3964 25.1814 45.8863 23.9702C45.5919 23.7342 45.4033 23.3909 45.362 23.0158C45.3208 22.6407 45.4302 22.2646 45.6663 21.9702C45.9023 21.6759 46.2456 21.4873 46.6207 21.446C46.9958 21.4048 47.3719 21.5142 47.6663 21.7502C48.786 22.6616 50.1167 23.2771 51.5363 23.5402C51.8866 23.5996 52.202 23.7883 52.4201 24.0688C52.6381 24.3494 52.7431 24.7015 52.7142 25.0557C52.6853 25.4099 52.5247 25.7404 52.264 25.9819C52.0034 26.2234 51.6616 26.3584 51.3063 26.3602L51.3363 26.3202Z" fill="#999999"/>
<path d="M54.8763 26.2902C54.5182 26.2962 54.1711 26.1666 53.9045 25.9275C53.6379 25.6884 53.4715 25.3574 53.4386 25.0008C53.4057 24.6442 53.5088 24.2883 53.7272 24.0045C53.9456 23.7206 54.2632 23.5298 54.6163 23.4702C55.2557 23.3504 55.8796 23.1592 56.4763 22.9002C56.6479 22.8193 56.834 22.7736 57.0236 22.7658C57.2132 22.7581 57.4024 22.7884 57.5801 22.8549C57.7577 22.9215 57.9203 23.023 58.058 23.1535C58.1958 23.2839 58.3061 23.4407 58.3823 23.6144C58.4584 23.7882 58.499 23.9755 58.5016 24.1652C58.5042 24.3549 58.4688 24.5432 58.3974 24.719C58.326 24.8948 58.2201 25.0545 58.0859 25.1887C57.9518 25.3229 57.7921 25.4288 57.6163 25.5002C56.8219 25.8511 55.9898 26.1095 55.1363 26.2702L54.8763 26.2902Z" fill="#999999"/>
<path d="M34.1659 56.0697C34.0862 56.0793 34.0057 56.0793 33.9259 56.0697C32.018 55.7474 30.2243 54.9418 28.7159 53.7297C28.4255 53.4884 28.2429 53.1415 28.2082 52.7655C28.1735 52.3895 28.2896 52.0151 28.5309 51.7247C28.7723 51.4343 29.1191 51.2517 29.4951 51.217C29.8711 51.1823 30.2455 51.2984 30.5359 51.5397C31.6646 52.4493 33.0071 53.0552 34.4359 53.2997C34.785 53.379 35.0917 53.5863 35.2954 53.8806C35.499 54.175 35.5849 54.5351 35.5359 54.8897C35.4821 55.2158 35.3154 55.5125 35.065 55.7282C34.8146 55.9439 34.4964 56.0648 34.1659 56.0697Z" fill="#999999"/>
<path d="M37.7064 56.05C37.3483 56.056 37.0012 55.9264 36.7346 55.6873C36.468 55.4482 36.3016 55.1172 36.2687 54.7606C36.2358 54.404 36.3389 54.0481 36.5573 53.7643C36.7757 53.4804 37.0932 53.2896 37.4464 53.23C38.0857 53.1102 38.7096 52.919 39.3064 52.66C39.6499 52.5083 40.0396 52.499 40.39 52.6339C40.7405 52.7688 41.0232 53.0371 41.1764 53.38C41.3284 53.725 41.3381 54.1161 41.2032 54.4682C41.0684 54.8202 40.8 55.1048 40.4564 55.26C39.6577 55.6064 38.8224 55.8614 37.9664 56.02C37.8811 56.0399 37.7939 56.0499 37.7064 56.05Z" fill="#999999"/>
<path d="M11.9864 35.7302C11.7902 35.73 11.5961 35.6891 11.4164 35.6102C9.64604 34.8261 8.10432 33.6045 6.93638 32.0602C6.70962 31.7592 6.61175 31.3804 6.66426 31.0072C6.71677 30.634 6.91536 30.2969 7.21638 30.0702C7.5174 29.8434 7.89619 29.7455 8.26939 29.798C8.64259 29.8506 8.97964 30.0492 9.2064 30.3502C10.0696 31.5081 11.2164 32.4242 12.5364 33.0102C12.88 33.1654 13.1484 33.4499 13.2833 33.802C13.4181 34.1541 13.4084 34.5452 13.2564 34.8902C13.1473 35.1371 12.9696 35.3475 12.7445 35.4964C12.5194 35.6453 12.2563 35.7264 11.9864 35.7302Z" fill="#999999"/>
<path d="M16.0463 36.5903H15.3463C15.1598 36.5791 14.9774 36.5314 14.8094 36.4497C14.6414 36.368 14.4911 36.254 14.3671 36.1143C14.1168 35.832 13.9888 35.4619 14.0113 35.0853C14.0339 34.7087 14.2051 34.3565 14.4873 34.1061C14.7696 33.8557 15.1397 33.7278 15.5163 33.7503C16.168 33.7922 16.8223 33.7586 17.4663 33.6503C17.6502 33.6188 17.8384 33.6238 18.0204 33.665C18.2023 33.7063 18.3743 33.7829 18.5266 33.8907C18.6788 33.9984 18.8084 34.135 18.9079 34.2928C19.0074 34.4506 19.0748 34.6265 19.1063 34.8103C19.1379 34.9942 19.1328 35.1824 19.0916 35.3643C19.0504 35.5462 18.9737 35.7183 18.866 35.8705C18.7583 36.0228 18.6216 36.1524 18.4638 36.2519C18.306 36.3514 18.1302 36.4188 17.9463 36.4503C17.3182 36.5514 16.6825 36.5983 16.0463 36.5903Z" fill="#999999"/>
<path d="M35.6262 61.9298C31.3794 61.919 27.3082 60.2337 24.2962 57.2398C22.4457 55.3861 21.0785 53.1063 20.3149 50.6008C19.5512 48.0953 19.4143 45.4406 19.9162 42.8698C19.9356 42.7517 19.9257 42.6307 19.8874 42.5173C19.849 42.404 19.7834 42.3018 19.6962 42.2198C19.5576 42.0824 19.3714 42.0036 19.1762 41.9998H19.0462C18.0386 42.2001 17.0136 42.3006 15.9862 42.2998C12.6937 42.297 9.4822 41.2784 6.78986 39.3831C4.09753 37.4879 2.05545 34.8081 0.942237 31.7095C-0.170978 28.6108 -0.301107 25.2442 0.569557 22.0689C1.44022 18.8935 3.26928 16.0641 5.80726 13.9666C8.34523 11.8691 11.4685 10.6057 14.751 10.3486C18.0335 10.0916 21.3154 10.8535 24.1489 12.5304C26.9824 14.2073 29.2296 16.7176 30.5838 19.7187C31.9381 22.7198 32.3336 26.0657 31.7162 29.2998C31.6946 29.42 31.6992 29.5434 31.7296 29.6617C31.7599 29.78 31.8154 29.8903 31.8923 29.9852C31.9692 30.0801 32.0656 30.1573 32.175 30.2116C32.2844 30.2659 32.4042 30.296 32.5262 30.2998H32.6462C33.6351 30.1109 34.6394 30.0138 35.6462 30.0098C37.8821 29.9992 40.0954 30.4574 42.1433 31.3548C44.1913 32.2522 46.0284 33.5688 47.5362 35.2198C50.1376 38.1714 51.5729 41.9705 51.5729 45.9048C51.5729 49.8391 50.1376 53.6383 47.5362 56.5898C46.0877 58.2198 44.3191 59.5341 42.3407 60.4511C40.3622 61.3681 38.2162 61.868 36.0362 61.9198L35.6262 61.9298ZM19.1762 38.2598C19.8356 38.2631 20.4861 38.4113 21.0819 38.6939C21.6776 38.9765 22.204 39.3865 22.6238 39.895C23.0435 40.4034 23.3464 40.998 23.511 41.6364C23.6756 42.2749 23.6979 42.9418 23.5762 43.5898C23.1953 45.5591 23.3033 47.5918 23.8908 49.5096C24.4784 51.4275 25.5275 53.1719 26.9462 54.5898C28.0689 55.728 29.4062 56.6323 30.8807 57.2502C32.3551 57.8681 33.9375 58.1875 35.5362 58.1898H35.9362C37.6074 58.147 39.2518 57.7609 40.7674 57.0556C42.283 56.3503 43.6373 55.3408 44.7462 54.0898C46.3214 52.3275 47.3535 50.1473 47.7183 47.812C48.0831 45.4766 47.7651 43.0856 46.8024 40.9268C45.8398 38.768 44.2736 36.9335 42.2925 35.6442C40.3115 34.3549 37.9999 33.6658 35.6362 33.6598C34.8609 33.6583 34.0873 33.732 33.3262 33.8798C33.0523 33.9284 32.7744 33.9518 32.4962 33.9498C31.8279 33.9454 31.1688 33.7941 30.5654 33.5067C29.962 33.2193 29.4291 32.8028 29.0046 32.2867C28.58 31.7705 28.2741 31.1674 28.1085 30.5199C27.9429 29.8724 27.9216 29.1964 28.0462 28.5398C28.5111 26.0614 28.2004 23.4998 27.1564 21.2044C26.1125 18.909 24.3862 16.9913 22.2127 15.7127C20.0392 14.4341 17.5243 13.8568 15.0108 14.0595C12.4973 14.2622 10.1074 15.235 8.16694 16.8454C6.22644 18.4558 4.82971 20.6253 4.16712 23.0584C3.50453 25.4915 3.60833 28.0697 4.46433 30.4416C5.32034 32.8135 6.88691 34.8638 8.95057 36.313C11.0142 37.7622 13.4746 38.5398 15.9962 38.5398C16.7818 38.5381 17.5654 38.4611 18.3362 38.3098C18.6143 38.2689 18.8953 38.2522 19.1762 38.2598Z" fill="#999999"/>
</svg>
