<svg width="30" height="30" viewBox="0 0 30 30" fill="none" xmlns="http://www.w3.org/2000/svg">
<path d="M19.7367 30H10.2633C7.54214 29.9974 4.93316 28.9152 3.00899 26.991C1.08481 25.0668 0.00264751 22.4579 0 19.7367L0 10.2633C0.00264751 7.54214 1.08481 4.93316 3.00899 3.00899C4.93316 1.08481 7.54214 0.00264751 10.2633 0L19.7367 0C22.4579 0.00264751 25.0668 1.08481 26.991 3.00899C28.9152 4.93316 29.9974 7.54214 30 10.2633V19.7367C29.9974 22.4579 28.9152 25.0668 26.991 26.991C25.0668 28.9152 22.4579 29.9974 19.7367 30ZM10.1167 1.16667C7.74406 1.17019 5.46964 2.11427 3.79196 3.79196C2.11427 5.46964 1.17019 7.74406 1.16667 10.1167V19.8833C1.17019 22.2559 2.11427 24.5304 3.79196 26.208C5.46964 27.8857 7.74406 28.8298 10.1167 28.8333H19.8833C22.2559 28.8298 24.5304 27.8857 26.208 26.208C27.8857 24.5304 28.8298 22.2559 28.8333 19.8833V10.1167C28.8298 7.74406 27.8857 5.46964 26.208 3.79196C24.5304 2.11427 22.2559 1.17019 19.8833 1.16667H10.1167Z" fill="white"/>
<path d="M24.0865 9.22656H5.91314C4.15981 9.22656 3.97314 13.3699 3.97314 15.1499C3.97314 16.9299 4.15981 21.0732 5.91314 21.0732H24.0865C25.8398 21.0732 26.0265 16.9332 26.0265 15.1499C26.0265 13.3666 25.8398 9.22656 24.0865 9.22656ZM24.6398 11.6666H22.9998C22.9308 11.2837 22.835 10.9061 22.7131 10.5366H24.2931C24.4608 10.8952 24.5775 11.2756 24.6398 11.6666ZM24.9465 15.1466C24.9506 15.9933 24.9005 16.8395 24.7965 17.6799H23.1298C23.2236 16.8387 23.2726 15.993 23.2765 15.1466C23.2724 14.3001 23.2234 13.4545 23.1298 12.6132H24.7965C24.9007 13.4547 24.9508 14.302 24.9465 15.1499V15.1466ZM20.8365 19.7632C20.9583 19.3928 21.053 19.014 21.1198 18.6299H22.0298C21.958 19.0181 21.8462 19.3979 21.6965 19.7632H20.8365ZM11.7298 19.7632C11.8516 19.3928 11.9463 19.014 12.0131 18.6299H20.1598C20.0861 19.0177 19.9744 19.3973 19.8265 19.7632H11.7298ZM9.85981 19.7632C9.98276 19.3929 10.0786 19.0141 10.1465 18.6299H11.0531C10.9794 19.0177 10.8678 19.3973 10.7198 19.7632H9.85981ZM6.78314 19.7632C6.90455 19.3925 7.00033 19.0138 7.06981 18.6299H9.18648C9.11462 19.0181 9.00292 19.3979 8.85314 19.7632H6.78314ZM8.85648 10.5399C9.00634 10.904 9.11805 11.2827 9.18981 11.6699H7.06981C7.00075 11.287 6.90496 10.9094 6.78314 10.5399H8.85648ZM10.7265 10.5399C10.8745 10.9047 10.9862 11.2832 11.0598 11.6699H10.1465C10.079 11.2867 9.98317 10.909 9.85981 10.5399H10.7265ZM19.8331 10.5399C19.9812 10.9047 20.0929 11.2832 20.1665 11.6699H11.9998C11.9334 11.2868 11.8387 10.9091 11.7165 10.5399H19.8331ZM21.6998 10.5399C21.8497 10.904 21.9614 11.2827 22.0331 11.6699H21.1198C21.0534 11.2868 20.9587 10.9091 20.8365 10.5399H21.6998ZM22.3331 15.1499C22.3363 15.9966 22.2873 16.8426 22.1865 17.6832H21.2598C21.3554 16.8421 21.4044 15.9964 21.4065 15.1499C21.4042 14.3034 21.3552 13.4577 21.2598 12.6166H22.1831C22.285 13.4571 22.3351 14.3032 22.3331 15.1499ZM7.21314 12.6166H9.33314C9.43388 13.4572 9.48286 14.3032 9.47981 15.1499C9.483 15.9966 9.43401 16.8426 9.33314 17.6832H7.20981C7.3036 16.842 7.35255 15.9963 7.35648 15.1499C7.3524 14.3035 7.30344 13.4578 7.20981 12.6166H7.21314ZM10.2898 12.6166H11.2098C11.3105 13.4572 11.3595 14.3032 11.3565 15.1499C11.3597 15.9966 11.3107 16.8426 11.2098 17.6832H10.2865C10.3803 16.842 10.4292 15.9963 10.4331 15.1499C10.4291 14.3035 10.3801 13.4578 10.2865 12.6166H10.2898ZM12.1565 12.6166H20.3131C20.4156 13.4571 20.4646 14.3032 20.4598 15.1499C20.4647 15.9966 20.4157 16.8427 20.3131 17.6832H12.1531C12.2469 16.842 12.2959 15.9963 12.2998 15.1499C12.2957 14.3035 12.2468 13.4578 12.1531 12.6166H12.1565ZM22.9998 18.6299H24.6665C24.6008 19.0224 24.4808 19.4039 24.3098 19.7632H22.7031C22.8279 19.3927 22.9271 19.014 22.9998 18.6299ZM5.05314 15.1499C5.05314 12.5899 5.45314 10.9899 5.71981 10.5399H5.78314C6.06981 11.1899 6.40981 12.7466 6.40981 15.1499C6.40981 17.5532 6.07648 19.1132 5.78314 19.7632H5.71981C5.45314 19.3132 5.05314 17.7132 5.05314 15.1499Z" fill="white"/>
</svg>
