<svg width="66" height="62" viewBox="0 0 66 62" fill="none" xmlns="http://www.w3.org/2000/svg">
<path d="M2.81995 43.8071C0.960722 39.6266 0 35.1023 0 30.5271C0 25.9518 0.960722 21.4275 2.81995 17.2471C5.52542 17.8948 8.09276 19.0227 10.4 20.5771C9.78431 21.9589 9.29886 23.3951 8.94995 24.8671C7.51295 26.4014 6.71338 28.4249 6.71338 30.5271C6.71338 32.6292 7.51295 34.6527 8.94995 36.1871C9.30226 37.6593 9.79106 39.0955 10.41 40.4771C8.09974 42.0325 5.5289 43.1604 2.81995 43.8071V43.8071Z" fill="white"/>
<path d="M55.9702 16.6268C53.5655 12.5928 50.1544 9.25239 46.0709 6.93266C41.9875 4.61292 37.3715 3.39336 32.6752 3.39336C27.9788 3.39336 23.3629 4.61292 19.2795 6.93266C15.196 9.25239 11.7849 12.5928 9.38019 16.6268C8.35243 16.0986 7.28999 15.6409 6.2002 15.2568C8.8804 10.6178 12.7342 6.76591 17.3743 4.08787C22.0145 1.40983 27.2777 0 32.6352 0C37.9927 0 43.2559 1.40983 47.8961 4.08787C52.5362 6.76591 56.39 10.6178 59.0702 15.2568C58.0076 15.6442 56.972 16.1019 55.9702 16.6268V16.6268Z" fill="white"/>
<path d="M32.6802 61.1068C27.3104 61.1062 22.0356 59.6908 17.3869 57.0031C12.7382 54.3153 8.8798 50.4501 6.2002 45.7968C7.27711 45.4128 8.32628 44.9551 9.34021 44.4268C11.7449 48.4607 15.156 51.8011 19.2395 54.1209C23.323 56.4406 27.9388 57.6602 32.6352 57.6602C37.3316 57.6602 41.9474 56.4406 46.0309 54.1209C50.1143 51.8011 53.5254 48.4607 55.9302 44.4268C56.9441 44.9551 57.9933 45.4128 59.0702 45.7968C56.399 50.4376 52.5549 54.2949 47.9232 56.9819C43.2915 59.669 38.0349 61.0915 32.6802 61.1068V61.1068Z" fill="white"/>
<path d="M62.5302 43.8071C59.8279 43.1592 57.2638 42.0313 54.9602 40.4771C55.5759 39.0953 56.0613 37.659 56.4102 36.1871C57.8428 34.6505 58.6394 32.6279 58.6394 30.5271C58.6394 28.4263 57.8428 26.4036 56.4102 24.8671C56.0625 23.3935 55.5735 21.9569 54.9502 20.5771C57.2574 19.0227 59.8247 17.8948 62.5302 17.2471C64.3894 21.4275 65.3501 25.9518 65.3501 30.5271C65.3501 35.1023 64.3894 39.6266 62.5302 43.8071V43.8071Z" fill="white"/>
</svg>
