<svg width="67" height="43" viewBox="0 0 67 43" fill="none" xmlns="http://www.w3.org/2000/svg">
<path d="M0.668486 22.5001C-0.232093 25.5471 -0.222541 28.7908 0.695982 31.8325C1.61451 34.8741 3.40195 37.5809 5.83848 39.6201C10.2785 43.1901 14.8985 43.8201 20.7485 41.9701C26.5985 40.1201 32.5885 34.0201 35.5085 27.3301C38.4285 20.6401 42.5085 16.3301 45.2085 15.4301C47.9085 14.5301 57.0885 10.8701 63.2785 17.4301C63.2785 17.4301 68.5385 16.3601 65.2185 10.7301C61.8985 5.10013 45.7585 5.40013 38.6785 11.3901C31.5985 17.3801 30.3485 24.1501 27.9285 27.3301C25.5085 30.5101 20.9285 35.7301 16.2485 35.1101C11.5685 34.4901 7.83848 33.0401 6.83848 27.3301C6.16848 23.4801 10.0185 17.7601 14.4485 15.4801C18.8785 13.2001 26.4485 8.92012 28.6185 7.92012C30.7885 6.92012 34.6185 3.92013 40.3585 8.82013C40.3585 8.82013 44.7885 6.62013 47.6185 6.41013C47.6185 6.41013 38.7485 0.0201261 34.8985 0.000126095C31.0485 -0.0198739 23.0685 2.34013 16.6785 6.48013C10.2885 10.6201 3.30849 14.0401 0.668486 22.5001Z" fill="#999999"/>
</svg>
