<svg width="30" height="30" viewBox="0 0 30 30" fill="none" xmlns="http://www.w3.org/2000/svg">
<g clip-path="url(#clip0)">
<path d="M19.7367 29.9966H10.2633C7.54215 29.9939 4.93317 28.9118 3.00899 26.9876C1.08482 25.0634 0.00264751 22.4544 0 19.7333V10.2632C0.00176495 7.54147 1.08354 4.93164 3.00781 3.00674C4.93208 1.08185 7.54158 -0.000769185 10.2633 -0.00341797H19.7367C22.4579 -0.000770463 25.0669 1.08139 26.991 3.00556C28.9152 4.92974 29.9974 7.53872 30 10.2599V19.7333C29.9974 22.4544 28.9152 25.0634 26.991 26.9876C25.0669 28.9118 22.4579 29.9939 19.7367 29.9966ZM10.12 1.16325C7.74685 1.16589 5.47158 2.10958 3.79317 3.78736C2.11477 5.46515 1.1702 7.74006 1.16667 10.1132V19.8799C1.1702 22.2531 2.11477 24.528 3.79317 26.2058C5.47158 27.8836 7.74685 28.8273 10.12 28.8299H19.8934C22.2662 28.8273 24.5412 27.8835 26.219 26.2056C27.8969 24.5277 28.8407 22.2528 28.8433 19.8799V10.1132C28.8398 7.74094 27.8956 5.46688 26.2179 3.78972C24.5401 2.11257 22.2656 1.16923 19.8934 1.16659L10.12 1.16325Z" fill="white"/>
<path d="M19.4268 11.3301C21.0234 11.3301 22.5546 11.9643 23.6836 13.0933C24.8125 14.2223 25.4468 15.7535 25.4468 17.3501C25.4468 18.9467 24.8125 20.4779 23.6836 21.6069C22.5546 22.7358 21.0234 23.3701 19.4268 23.3701C17.7676 23.322 16.1907 22.6368 15.0234 21.4567" stroke="white" stroke-miterlimit="10"/>
<path d="M12.2466 22.0166C16.4955 22.0166 19.9399 18.5721 19.9399 14.3232C19.9399 10.0743 16.4955 6.62988 12.2466 6.62988C7.99765 6.62988 4.55322 10.0743 4.55322 14.3232C4.55322 18.5721 7.99765 22.0166 12.2466 22.0166Z" stroke="white" stroke-miterlimit="10"/>
<path d="M18.0033 13.9967C18.0067 14.0355 18.0067 14.0745 18.0033 14.1133C18.0382 15.0449 17.834 15.9698 17.41 16.8C17.3693 16.8801 17.3132 16.9514 17.2449 17.0098C17.1766 17.0683 17.0975 17.1127 17.0121 17.1405C16.9267 17.1684 16.8366 17.1792 16.747 17.1722C16.6574 17.1652 16.5701 17.1407 16.49 17.1C16.4099 17.0593 16.3386 17.0032 16.2801 16.9349C16.2217 16.8667 16.1773 16.7876 16.1494 16.7021C16.1216 16.6167 16.1108 16.5266 16.1178 16.437C16.1247 16.3474 16.1493 16.2601 16.19 16.18C16.5075 15.5566 16.6612 14.8626 16.6366 14.1633C16.6271 13.9903 16.6836 13.8202 16.7948 13.6873C16.9059 13.5544 17.0635 13.4687 17.2354 13.4475C17.4074 13.4263 17.5809 13.4713 17.721 13.5732C17.8611 13.6752 17.9572 13.8265 17.99 13.9967H18.0033Z" fill="white"/>
<path d="M17.6399 12.33C17.679 12.4985 17.6527 12.6755 17.5664 12.8254C17.48 12.9753 17.3401 13.0869 17.1747 13.1376C17.0093 13.1884 16.8309 13.1745 16.6754 13.0989C16.5198 13.0232 16.3987 12.8914 16.3365 12.73C16.2172 12.4402 16.0651 12.1651 15.8832 11.91C15.8309 11.8369 15.7935 11.7542 15.7731 11.6666C15.7528 11.5791 15.7499 11.4884 15.7646 11.3997C15.7793 11.311 15.8113 11.2261 15.8588 11.1498C15.9064 11.0735 15.9684 11.0073 16.0415 10.955C16.1146 10.9027 16.1973 10.8653 16.2849 10.8449C16.3725 10.8246 16.4631 10.8217 16.5518 10.8364C16.6405 10.8511 16.7254 10.8831 16.8017 10.9306C16.878 10.9781 16.9443 11.0402 16.9966 11.1133C17.2392 11.4538 17.4427 11.8206 17.6032 12.2067C17.6189 12.2466 17.6312 12.2879 17.6399 12.33Z" fill="white"/>
</g>
<defs>
<clipPath id="clip0">
<rect width="30" height="30" fill="white"/>
</clipPath>
</defs>
</svg>
