<svg width="67" height="55" viewBox="0 0 67 55" fill="none" xmlns="http://www.w3.org/2000/svg">
<path d="M46.6202 16.1104C51.41 16.1104 56.0036 18.0131 59.3905 21.4C62.7774 24.7869 64.6802 29.3805 64.6802 34.1704C64.6802 38.9602 62.7774 43.5538 59.3905 46.9407C56.0036 50.3276 51.41 52.2304 46.6202 52.2304C41.642 52.0892 36.9102 50.0331 33.4102 46.4903" stroke="white" stroke-width="4" stroke-miterlimit="10"/>
<path d="M25.08 48.16C37.8267 48.16 48.16 37.8267 48.16 25.08C48.16 12.3333 37.8267 2 25.08 2C12.3333 2 2 12.3333 2 25.08C2 37.8267 12.3333 48.16 25.08 48.16Z" stroke="white" stroke-width="4" stroke-miterlimit="10"/>
<path d="M42.3395 24.1102C42.3395 24.2202 42.3395 24.3402 42.3395 24.4602C42.4395 27.2544 41.827 30.0281 40.5595 32.5202C40.3129 33.0056 39.8835 33.3731 39.3659 33.5419C38.8483 33.7106 38.2849 33.6669 37.7995 33.4202C37.3142 33.1736 36.9467 32.7442 36.7779 32.2266C36.6091 31.709 36.6529 31.1456 36.8995 30.6602C37.8803 28.8002 38.3756 26.7227 38.3395 24.6202C38.3217 24.3469 38.3603 24.0728 38.4528 23.8149C38.5453 23.557 38.6898 23.3209 38.8773 23.1212C39.0648 22.9215 39.2914 22.7624 39.5429 22.6539C39.7944 22.5454 40.0656 22.4897 40.3395 22.4902C40.8068 22.4949 41.2588 22.6575 41.6219 22.9516C41.985 23.2457 42.2379 23.6541 42.3395 24.1102Z" fill="white"/>
<path d="M41.2596 19.1104C41.3391 19.3677 41.367 19.6383 41.3419 19.9065C41.3168 20.1747 41.2392 20.4353 41.1133 20.6735C40.9875 20.9117 40.816 21.1227 40.6086 21.2946C40.4012 21.4665 40.162 21.5959 39.9046 21.6753C39.6472 21.7548 39.3767 21.7828 39.1085 21.7577C38.8403 21.7326 38.5797 21.6549 38.3415 21.5291C38.1033 21.4033 37.8922 21.2318 37.7203 21.0244C37.5484 20.817 37.4191 20.5777 37.3396 20.3204C36.9782 19.4508 36.5186 18.6254 35.9696 17.8604C35.6527 17.4135 35.5262 16.859 35.6181 16.3189C35.71 15.7788 36.0127 15.2973 36.4596 14.9804C36.9065 14.6634 37.461 14.537 38.0011 14.6289C38.5412 14.7208 39.0227 15.0235 39.3396 15.4704C40.0681 16.4898 40.6755 17.5905 41.1496 18.7504C41.1961 18.8671 41.2329 18.9875 41.2596 19.1104V19.1104Z" fill="white"/>
</svg>
